<svg width="117" height="68" viewBox="0 0 117 68" fill="none" xmlns="http://www.w3.org/2000/svg">
<g filter="url(#filter0_dddddd_3_14706)">
<rect x="5.94359" y="65.0815" width="132.604" height="27.1744" rx="4.54647" transform="rotate(-27.9433 5.94359 65.0815)" fill="white" stroke="#FF6154" stroke-width="1.39583"/>
<path d="M34.6289 61.5299L32.8549 58.1854L34.1744 57.4855C34.4281 57.3509 34.6699 57.2847 34.8998 57.2869C35.1292 57.288 35.336 57.3492 35.5203 57.4705C35.7051 57.5901 35.8564 57.7609 35.9742 57.983C36.092 58.2051 36.1481 58.4265 36.1423 58.6471C36.1366 58.8678 36.068 59.0737 35.9364 59.2648C35.8059 59.4554 35.6122 59.6188 35.3553 59.7551L34.5143 60.2012L34.2137 59.6346L34.9404 59.2491C35.0765 59.1769 35.1762 59.094 35.2396 59.0004C35.3034 58.9052 35.3349 58.8041 35.334 58.6972C35.3336 58.5886 35.3042 58.4793 35.2459 58.3693C35.187 58.2583 35.1133 58.1732 35.0247 58.1142C34.9367 58.0534 34.8359 58.0239 34.7224 58.0255C34.6083 58.026 34.4827 58.0627 34.3455 58.1355L33.8686 58.3884L35.336 61.1548L34.6289 61.5299ZM37.3764 60.0725L35.6024 56.728L36.9219 56.0281C37.1745 55.8941 37.414 55.8249 37.6405 55.8206C37.8675 55.8146 38.0714 55.8689 38.2522 55.9837C38.4335 56.0967 38.5828 56.2638 38.7001 56.4848C38.8179 56.7069 38.8713 56.9233 38.8604 57.1342C38.8489 57.344 38.7748 57.5395 38.638 57.7209C38.5023 57.9017 38.306 58.0602 38.0491 58.1965L37.1656 58.6651L36.8642 58.0968L37.6333 57.6888C37.7683 57.6172 37.8706 57.5392 37.9403 57.4549C38.0099 57.3705 38.0469 57.2797 38.0512 57.1826C38.0565 57.0849 38.0301 56.9811 37.9717 56.8711C37.9128 56.7601 37.8408 56.6783 37.7558 56.6257C37.6718 56.5726 37.5742 56.5505 37.4631 56.5592C37.3525 56.5663 37.2291 56.6059 37.093 56.6781L36.6162 56.931L38.0835 59.6974L37.3764 60.0725ZM38.3753 57.5924L40.0138 58.6735L39.2332 59.0876L37.6126 57.9969L38.3753 57.5924ZM42.3507 55.2912C42.5442 55.6559 42.6396 56.0028 42.6371 56.332C42.6356 56.6606 42.552 56.9554 42.3863 57.2162C42.2211 57.4755 41.991 57.6833 41.6959 57.8398C41.3987 57.9975 41.0962 58.0715 40.7883 58.0618C40.4805 58.0521 40.1901 57.9557 39.9172 57.7726C39.6443 57.5896 39.4114 57.3162 39.2186 56.9526C39.0251 56.5879 38.9291 56.2412 38.9306 55.9126C38.932 55.584 39.0154 55.2901 39.1806 55.0309C39.3452 54.7706 39.5762 54.5616 39.8734 54.4039C40.1684 54.2474 40.4699 54.174 40.7777 54.1837C41.0861 54.1917 41.3767 54.2873 41.6496 54.4703C41.9236 54.6528 42.1573 54.9264 42.3507 55.2912ZM41.6338 55.6714C41.5085 55.4352 41.3674 55.2547 41.2106 55.13C41.0549 55.0048 40.8911 54.934 40.7193 54.9178C40.5474 54.9015 40.3761 54.9387 40.2051 55.0294C40.0342 55.12 39.9073 55.2411 39.8244 55.3925C39.7415 55.5439 39.7077 55.7194 39.7229 55.9192C39.7393 56.1184 39.8102 56.3361 39.9355 56.5723C40.0608 56.8086 40.2013 56.9893 40.357 57.1146C40.5138 57.2392 40.6782 57.3097 40.85 57.326C41.0218 57.3422 41.1932 57.305 41.3642 57.2144C41.5351 57.1237 41.662 57.0027 41.7449 56.8513C41.8278 56.6999 41.8611 56.5246 41.8447 56.3254C41.8294 56.1257 41.7591 55.9077 41.6338 55.6714ZM44.7172 56.1786L43.5316 56.8075L41.7576 53.463L42.953 52.829C43.2894 52.6505 43.6145 52.5639 43.9283 52.569C44.2415 52.573 44.5296 52.6651 44.7925 52.8451C45.0564 53.0245 45.2805 53.2879 45.4648 53.6352C45.6496 53.9836 45.7425 54.3179 45.7436 54.6382C45.7458 54.9579 45.6599 55.2496 45.486 55.5135C45.3131 55.7767 45.0569 55.9985 44.7172 56.1786ZM43.9173 55.8266L44.3664 55.5884C44.5755 55.4775 44.7317 55.3472 44.835 55.1975C44.9389 55.0462 44.9851 54.8731 44.9738 54.6782C44.963 54.4816 44.8915 54.2587 44.7593 54.0094C44.6282 53.7622 44.4846 53.5796 44.3285 53.4616C44.1735 53.3429 44.005 53.2844 43.8231 53.286C43.6413 53.2876 43.4458 53.3439 43.2368 53.4548L42.7861 53.6938L43.9173 55.8266ZM46.9391 50.7145L47.6462 50.3395L48.7983 52.5114C48.9277 52.7553 48.9826 52.9996 48.9631 53.2443C48.9448 53.4884 48.8587 53.7167 48.7051 53.9294C48.5509 54.1409 48.3355 54.32 48.0589 54.4667C47.7813 54.614 47.5117 54.6921 47.25 54.7012C46.9878 54.7092 46.7505 54.6523 46.5381 54.5306C46.3257 54.4089 46.1548 54.2261 46.0254 53.9823L44.8733 51.8103L45.5804 51.4353L46.7005 53.5468C46.768 53.6741 46.8559 53.7726 46.9639 53.8423C47.0731 53.9113 47.1939 53.947 47.3262 53.9493C47.4586 53.9516 47.5928 53.9167 47.7289 53.8445C47.8661 53.7718 47.9703 53.6802 48.0415 53.5699C48.1138 53.459 48.1515 53.3393 48.1544 53.2108C48.1585 53.0817 48.1267 52.9534 48.0592 52.8261L46.9391 50.7145ZM51.5701 49.7585L50.8548 50.1379C50.7926 50.0523 50.7224 49.9842 50.644 49.9337C50.565 49.8821 50.4804 49.8475 50.3901 49.8298C50.2998 49.8122 50.2061 49.8117 50.1089 49.8283C50.0128 49.8444 49.9169 49.8779 49.821 49.9287C49.6479 50.0205 49.52 50.1435 49.4371 50.2977C49.3537 50.4507 49.3199 50.6277 49.3358 50.8285C49.3511 51.0283 49.4202 51.2441 49.5432 51.476C49.6697 51.7144 49.8113 51.896 49.9681 52.0206C50.126 52.1447 50.2912 52.2141 50.4635 52.2287C50.6359 52.2433 50.8064 52.2058 50.9752 52.1163C51.0699 52.0661 51.1509 52.0071 51.2182 51.9393C51.2865 51.8709 51.3396 51.7961 51.3773 51.7147C51.4145 51.6322 51.4353 51.5451 51.4397 51.4535C51.4452 51.3613 51.4324 51.2662 51.4014 51.1683L52.1184 50.7922C52.1813 50.9555 52.2136 51.1281 52.2152 51.31C52.2173 51.4902 52.1861 51.6693 52.1214 51.8473C52.0573 52.0236 51.9571 52.1897 51.8209 52.3457C51.6851 52.5 51.51 52.6341 51.2955 52.7478C50.9972 52.9061 50.6947 52.98 50.3879 52.9698C50.0822 52.959 49.7935 52.8617 49.5217 52.678C49.251 52.4938 49.0192 52.2199 48.8263 51.8563C48.6328 51.4915 48.5369 51.1449 48.5383 50.8163C48.5398 50.4877 48.6226 50.194 48.7867 49.9354C48.9503 49.6757 49.179 49.4678 49.473 49.3119C49.6667 49.2091 49.8608 49.1411 50.0552 49.1077C50.2506 49.0738 50.4403 49.075 50.6242 49.1114C50.8075 49.1467 50.9793 49.2181 51.1396 49.3256C51.3009 49.4325 51.4444 49.5768 51.5701 49.7585ZM51.408 49.0911L51.0987 48.5081L53.8455 47.0511L54.1547 47.6341L53.1308 48.1773L54.5956 50.9387L53.8967 51.3095L52.4319 48.548L51.408 49.0911ZM56.6764 49.835L54.9023 46.4906L55.6094 46.1155L56.3414 47.4954L57.7768 46.734L57.0449 45.3541L57.7503 44.9799L59.5244 48.3243L58.8189 48.6985L58.0861 47.317L56.6506 48.0784L57.3835 49.4599L56.6764 49.835ZM60.1692 43.6968L60.8763 43.3217L62.0284 45.4937C62.1577 45.7375 62.2127 45.9818 62.1932 46.2265C62.1748 46.4706 62.0888 46.699 61.9352 46.9116C61.7809 47.1232 61.5655 47.3023 61.289 47.449C61.0114 47.5962 60.7418 47.6744 60.4801 47.6834C60.2179 47.6914 59.9806 47.6345 59.7682 47.5128C59.5557 47.3912 59.3848 47.2084 59.2555 46.9645L58.1034 44.7926L58.8105 44.4175L59.9305 46.529C59.9981 46.6564 60.0859 46.7549 60.194 46.8245C60.3032 46.8936 60.4239 46.9292 60.5563 46.9316C60.6887 46.9339 60.8229 46.899 60.959 46.8268C61.0962 46.754 61.2004 46.6625 61.2716 46.5522C61.3439 46.4413 61.3815 46.3216 61.3845 46.193C61.3886 46.0639 61.3568 45.9357 61.2892 45.8083L60.1692 43.6968ZM64.0255 41.6512L65.7996 44.9957L65.1888 45.3197L62.6172 43.9865L62.5927 43.9995L63.7093 46.1045L63.0022 46.4796L61.2281 43.1351L61.8487 42.8059L64.408 44.1435L64.4374 44.1279L63.3217 42.0246L64.0255 41.6512ZM64.5617 42.1139L64.2525 41.5309L66.9992 40.0739L67.3085 40.6569L66.2846 41.2L67.7493 43.9615L67.0504 44.3322L65.5856 41.5707L64.5617 42.1139Z" fill="#FF6154"/>
<path d="M42.2793 70.102L40.1278 63.7187L41.0454 63.232L43.1968 69.6153L42.2793 70.102ZM38.8773 70.0401L38.5426 69.042L43.1303 66.6085L43.465 67.6066L38.8773 70.0401ZM40.2148 71.1971L38.0634 64.8138L38.9809 64.3271L41.1324 70.7104L40.2148 71.1971ZM38.1299 67.8206L37.798 66.821L42.3857 64.3875L42.7176 65.3871L38.1299 67.8206ZM44.2462 67.736L43.7276 66.7582L44.1304 61.5956L44.9734 61.1484L45.6913 62.5018L45.1924 62.7664L44.9443 66.032L44.9686 66.0779L48.4524 64.23L48.9802 65.2249L44.2462 67.736ZM47.6123 67.2731L46.9066 65.9427L46.6999 65.4976L44.5204 61.3887L45.6845 60.7712L48.7994 66.6435L47.6123 67.2731ZM51.4507 65.2371L48.3358 59.3649L50.6526 58.136C51.098 57.8997 51.5225 57.7835 51.9263 57.7873C52.329 57.7893 52.6921 57.8967 53.0157 58.1096C53.3402 58.3196 53.6059 58.6196 53.8127 59.0095C54.0196 59.3995 54.118 59.7882 54.1079 60.1756C54.0979 60.563 53.9774 60.9245 53.7464 61.2602C53.5173 61.5948 53.1771 61.8818 52.726 62.1211L51.2493 62.9043L50.7216 61.9094L51.9975 61.2326C52.2365 61.1058 52.4116 60.9603 52.5228 60.796C52.6349 60.6287 52.6902 60.4512 52.6886 60.2635C52.6879 60.0728 52.6363 59.8809 52.5339 59.6879C52.4305 59.4929 52.301 59.3435 52.1456 59.2398C51.9911 59.1332 51.8141 59.0813 51.6148 59.0842C51.4145 59.0851 51.1939 59.1495 50.953 59.2772L50.1157 59.7213L52.6922 64.5786L51.4507 65.2371ZM56.2518 62.6904L53.9157 58.2862L55.0999 57.6581L55.5075 58.4265L55.5534 58.4022C55.4887 58.0862 55.5139 57.8083 55.6291 57.5684C55.7433 57.3265 55.9237 57.1402 56.1703 57.0094C56.2315 56.977 56.2995 56.9458 56.3743 56.9159C56.449 56.8861 56.5168 56.8636 56.5774 56.8486L57.1523 57.9325C57.0858 57.9457 56.9984 57.9725 56.89 58.0128C56.7816 58.0532 56.6853 58.0957 56.6012 58.1403C56.4215 58.2356 56.2817 58.36 56.1818 58.5134C56.0829 58.6639 56.0288 58.8297 56.0196 59.0109C56.0123 59.1912 56.0563 59.3711 56.1516 59.5508L57.4733 62.0425L56.2518 62.6904ZM60.9825 60.2913C60.5371 60.5275 60.1018 60.6372 59.6764 60.6204C59.252 60.6006 58.8616 60.4672 58.5052 60.2202C58.1479 59.9713 57.8495 59.6213 57.6102 59.1702C57.3689 58.7153 57.2459 58.271 57.2413 57.8375C57.2357 57.402 57.3442 57.004 57.5669 56.6434C57.7904 56.2799 58.1249 55.98 58.5703 55.7437C59.0157 55.5075 59.4506 55.3993 59.8751 55.419C60.3004 55.4359 60.6918 55.5688 61.0491 55.8177C61.4055 56.0646 61.7043 56.4156 61.9456 56.8706C62.1849 57.3217 62.3074 57.765 62.313 58.2004C62.3176 58.634 62.2082 59.0325 61.9846 59.396C61.7619 59.7566 61.4279 60.055 60.9825 60.2913ZM60.4863 59.342C60.689 59.2346 60.8277 59.0875 60.9026 58.9008C60.9765 58.7122 60.9946 58.4993 60.9569 58.2621C60.9212 58.0238 60.8354 57.7767 60.6995 57.5205C60.5636 57.2644 60.4071 57.0547 60.2299 56.8915C60.0546 56.7273 59.8682 56.6229 59.6706 56.5783C59.4731 56.5337 59.273 56.5651 59.0703 56.6726C58.8658 56.7811 58.7247 56.9306 58.647 57.1212C58.5712 57.3109 58.5512 57.5248 58.5869 57.763C58.6246 58.0002 58.7114 58.2469 58.8472 58.503C58.9831 58.7592 59.1387 58.9694 59.314 59.1336C59.4911 59.2968 59.6795 59.4002 59.879 59.4438C60.0793 59.4844 60.2818 59.4505 60.4863 59.342ZM65.156 58.0591C64.8215 58.2366 64.4729 58.3113 64.1102 58.2832C63.7484 58.2522 63.399 58.1106 63.0618 57.8583C62.7256 57.6031 62.4272 57.2299 62.1666 56.7386C61.8989 56.234 61.7576 55.7713 61.7427 55.3506C61.7267 54.928 61.8094 54.562 61.9907 54.2528C62.1729 53.9406 62.4255 53.6988 62.7486 53.5274C62.9951 53.3966 63.2229 53.3297 63.432 53.3266C63.6419 53.3206 63.8304 53.3528 63.9976 53.4233C64.1658 53.4909 64.308 53.5698 64.4244 53.6599L64.4617 53.6401L63.2905 51.4323L64.5092 50.7859L67.624 56.6581L66.4198 57.2969L66.0456 56.5916L65.994 56.619C66.0015 56.7717 65.9847 56.9362 65.9434 57.1124C65.9031 57.2857 65.8205 57.4556 65.6958 57.6222C65.573 57.7877 65.3931 57.9334 65.156 58.0591ZM65.0275 56.8818C65.2244 56.7773 65.3623 56.6356 65.4413 56.4566C65.5211 56.2746 65.5456 56.0669 65.5148 55.8334C65.486 55.5988 65.4021 55.3506 65.2632 55.0888C65.1242 54.8269 64.9673 54.6187 64.7922 54.4641C64.6172 54.3096 64.4329 54.2163 64.2395 54.1841C64.0461 54.152 63.851 54.1882 63.6541 54.2926C63.4534 54.3991 63.3131 54.5433 63.2333 54.7252C63.1535 54.9072 63.1294 55.1135 63.1611 55.3441C63.1927 55.5746 63.276 55.817 63.4109 56.0713C63.5467 56.3274 63.7023 56.5352 63.8774 56.6946C64.0535 56.851 64.2388 56.9487 64.4333 56.9875C64.6287 57.0235 64.8268 56.9882 65.0275 56.8818ZM70.0542 52.9662L68.7127 50.4373L69.9342 49.7893L72.2704 54.1935L71.0976 54.8156L70.6733 54.0156L70.6274 54.04C70.6649 54.3507 70.6096 54.6459 70.4614 54.9253C70.3152 55.2037 70.0767 55.4306 69.746 55.606C69.4516 55.7622 69.1571 55.8327 68.8625 55.8175C68.5679 55.8023 68.2921 55.7049 68.0351 55.5252C67.7801 55.3446 67.5603 55.0827 67.3759 54.7396L65.8884 51.9354L67.1099 51.2875L68.4818 53.8738C68.6216 54.1327 68.8004 54.3012 69.0181 54.3792C69.2358 54.4572 69.4604 54.4349 69.6917 54.3122C69.8388 54.2341 69.9587 54.1277 70.0513 53.9928C70.1429 53.8561 70.1924 53.7 70.1998 53.5246C70.2091 53.3482 70.1606 53.1621 70.0542 52.9662ZM74.8792 52.9199C74.4281 53.1592 73.9894 53.2695 73.563 53.2507C73.1376 53.229 72.7471 53.0932 72.3917 52.8433C72.0381 52.5924 71.7432 52.2442 71.507 51.7988C71.2677 51.3477 71.1448 50.9059 71.1382 50.4734C71.1326 50.0379 71.2406 49.6389 71.4623 49.2764C71.6829 48.912 72.0159 48.6117 72.4613 48.3754C72.8455 48.1716 73.219 48.0629 73.5816 48.0493C73.9443 48.0358 74.2766 48.1105 74.5787 48.2736C74.8808 48.4367 75.1306 48.6838 75.3283 49.015L74.1757 49.6264C74.0266 49.4238 73.8467 49.2926 73.6362 49.2328C73.4266 49.1701 73.21 49.1981 72.9863 49.3167C72.7971 49.4171 72.6591 49.5564 72.5724 49.7347C72.4866 49.91 72.4562 50.1159 72.4813 50.3525C72.5063 50.589 72.5924 50.8459 72.7394 51.1231C72.8884 51.4041 73.0534 51.6227 73.2343 51.7791C73.4171 51.9344 73.6066 52.0261 73.8028 52.0543C73.9991 52.0825 74.1918 52.0464 74.381 51.946C74.5206 51.872 74.6306 51.7769 74.711 51.6608C74.7934 51.5436 74.842 51.4113 74.8568 51.2638C74.8726 51.1134 74.8508 50.9547 74.7916 50.7877L75.9443 50.1762C76.1036 50.5228 76.169 50.8678 76.1405 51.2111C76.1129 51.5515 75.9937 51.8695 75.7831 52.1649C75.5724 52.4604 75.2711 52.7121 74.8792 52.9199ZM77.1854 45.943L77.6721 46.8606L75.0198 48.2675L74.5331 47.3499L77.1854 45.943ZM74.5755 45.9753L75.797 45.3274L77.975 49.4334C78.0348 49.5462 78.0987 49.625 78.1665 49.6698C78.2334 49.7128 78.304 49.7304 78.3783 49.7228C78.4546 49.7142 78.5338 49.6881 78.616 49.6445C78.6734 49.6141 78.7282 49.5789 78.7805 49.5389C78.8317 49.497 78.8711 49.4651 78.8987 49.4431L79.5729 50.2502C79.5219 50.3017 79.4475 50.3693 79.3498 50.453C79.2532 50.5386 79.127 50.6263 78.9714 50.7162C78.6831 50.8838 78.4043 50.9815 78.1349 51.0093C77.8674 51.0361 77.6223 50.9873 77.3996 50.8629C77.1768 50.7386 76.9899 50.5316 76.8387 50.2419L74.5755 45.9753ZM83.4141 48.3927C82.9687 48.6289 82.5333 48.7386 82.108 48.7218C81.6835 48.702 81.2931 48.5686 80.9368 48.3216C80.5794 48.0727 80.2811 47.7227 80.0418 47.2716C79.8005 46.8167 79.6775 46.3724 79.6729 45.9389C79.6673 45.5034 79.7758 45.1054 79.9984 44.7448C80.222 44.3813 80.5565 44.0814 81.0019 43.8451C81.4473 43.6089 81.8822 43.5007 82.3066 43.5204C82.732 43.5373 83.1233 43.6702 83.4807 43.9191C83.837 44.166 84.1359 44.517 84.3772 44.972C84.6165 45.4231 84.739 45.8664 84.7446 46.3018C84.7492 46.7354 84.6397 47.1339 84.4162 47.4974C84.1935 47.858 83.8595 48.1564 83.4141 48.3927ZM82.9179 47.4434C83.1205 47.336 83.2593 47.1889 83.3342 47.0022C83.408 46.8136 83.4261 46.6007 83.3885 46.3635C83.3528 46.1253 83.267 45.8781 83.1311 45.6219C82.9952 45.3658 82.8387 45.1561 82.6615 44.9929C82.4862 44.8287 82.2998 44.7243 82.1022 44.6797C81.9046 44.6351 81.7045 44.6665 81.5019 44.774C81.2974 44.8825 81.1563 45.032 81.0786 45.2226C81.0028 45.4123 80.9828 45.6262 81.0185 45.8644C81.0562 46.1016 81.1429 46.3483 81.2788 46.6044C81.4147 46.8606 81.5702 47.0708 81.7455 47.235C81.9227 47.3982 82.1111 47.5016 82.3105 47.5452C82.5109 47.5858 82.7134 47.5519 82.9179 47.4434ZM85.9589 41.2892L86.4456 42.2067L83.7274 43.6486L83.2407 42.7311L85.9589 41.2892ZM86.1991 46.8052L83.6941 42.0827C83.5248 41.7635 83.4464 41.4658 83.4592 41.1896C83.4738 40.9124 83.5622 40.6635 83.7243 40.4428C83.8865 40.222 84.1061 40.0382 84.3833 39.8911C84.5706 39.7918 84.7493 39.7154 84.9194 39.6619C85.0913 39.6074 85.2216 39.5714 85.3102 39.5538L85.579 40.5869C85.5231 40.5969 85.4563 40.614 85.3784 40.6382C85.3025 40.6613 85.2283 40.6921 85.1556 40.7307C84.9759 40.826 84.873 40.9344 84.8469 41.0561C84.8198 41.1758 84.8458 41.3102 84.9249 41.4593L87.4177 46.1588L86.1991 46.8052ZM90.1091 39.0878L90.5958 40.0053L87.9435 41.4122L87.4568 40.4947L90.1091 39.0878ZM87.4992 39.1201L88.7207 38.4722L90.8987 42.5782C90.9585 42.691 91.0224 42.7698 91.0902 42.8146C91.1571 42.8575 91.2277 42.8752 91.302 42.8676C91.3783 42.859 91.4575 42.8329 91.5397 42.7893C91.5971 42.7588 91.6519 42.7236 91.7042 42.6837C91.7554 42.6418 91.7948 42.6099 91.8224 42.5879L92.4966 43.3949C92.4456 43.4465 92.3712 43.5141 92.2735 43.5978C92.1769 43.6833 92.0507 43.7711 91.8951 43.861C91.6068 44.0286 91.328 44.1263 91.0586 44.1541C90.7911 44.1808 90.546 44.132 90.3233 44.0077C90.1005 43.8833 89.9136 43.6763 89.7624 43.3867L87.4992 39.1201ZM92.8027 40.0398L94.1533 42.586L92.9318 43.2339L89.8169 37.3616L91.004 36.732L92.1949 38.9771L92.2465 38.9497C92.208 38.637 92.2606 38.3482 92.4043 38.0834C92.5469 37.8167 92.7855 37.5946 93.12 37.4172C93.4259 37.255 93.728 37.1804 94.0265 37.1936C94.3258 37.2038 94.6045 37.2997 94.8624 37.4813C95.1213 37.6599 95.3411 37.9218 95.5217 38.2669L97.0091 41.0711L95.7877 41.719L94.4158 39.1327C94.2737 38.8603 94.0928 38.6855 93.8732 38.6086C93.6555 38.5305 93.4223 38.5575 93.1738 38.6893C93.0075 38.7775 92.8791 38.8909 92.7886 39.0296C92.6999 39.1672 92.6553 39.3232 92.6546 39.4974C92.6549 39.6688 92.7042 39.8495 92.8027 40.0398ZM99.6194 39.7967C99.1664 40.037 98.7278 40.1521 98.3036 40.142C97.8802 40.129 97.4909 39.9999 97.1356 39.7549C96.7792 39.5079 96.4779 39.1522 96.2315 38.6876C95.9912 38.2346 95.8682 37.7904 95.8626 37.3549C95.8569 36.9195 95.963 36.5215 96.1808 36.161C96.4006 35.7995 96.7265 35.5042 97.1585 35.275C97.449 35.1209 97.7444 35.0243 98.0445 34.9851C98.3454 34.943 98.6388 34.965 98.9245 35.0511C99.2121 35.1361 99.483 35.2912 99.7371 35.5165C99.9903 35.7398 100.216 36.0388 100.415 36.4134L100.593 36.7489L96.8741 38.7216L96.4725 37.9646L99.0416 36.6018C98.9484 36.426 98.8275 36.2904 98.679 36.1953C98.5306 36.1001 98.3682 36.0503 98.1919 36.0458C98.0166 36.0384 97.84 36.0819 97.6622 36.1762C97.4768 36.2745 97.3352 36.4048 97.2375 36.5668C97.1406 36.726 97.0901 36.8985 97.0859 37.0845C97.0806 37.2685 97.1232 37.448 97.2135 37.623L97.5953 38.3427C97.7109 38.5606 97.8509 38.7276 98.0153 38.8436C98.1817 38.9587 98.3622 39.0197 98.5569 39.0266C98.7517 39.0336 98.9513 38.9828 99.1558 38.8743C99.2916 38.8023 99.4057 38.7173 99.4982 38.6192C99.5907 38.5212 99.6568 38.4126 99.6965 38.2936C99.7362 38.1745 99.7477 38.0484 99.731 37.9152L100.9 37.3905C100.987 37.6924 100.995 37.9918 100.925 38.2887C100.855 38.5827 100.711 38.8601 100.492 39.1209C100.273 39.3788 99.9826 39.6041 99.6194 39.7967ZM105.558 36.5363L103.477 37.6405L100.362 31.7682L102.461 30.6549C103.051 30.3416 103.622 30.1894 104.173 30.1985C104.723 30.2055 105.229 30.3671 105.69 30.6832C106.154 30.9983 106.547 31.4607 106.871 32.0705C107.195 32.6821 107.359 33.2692 107.36 33.8315C107.364 34.3928 107.213 34.9051 106.908 35.3684C106.605 35.8306 106.155 36.2199 105.558 36.5363ZM104.154 35.9182L104.942 35.4999C105.309 35.3052 105.584 35.0765 105.765 34.8137C105.948 34.5479 106.029 34.244 106.009 33.9018C105.99 33.5567 105.864 33.1652 105.632 32.7275C105.402 32.2936 105.15 31.973 104.876 31.7656C104.604 31.5573 104.308 31.4545 103.989 31.4574C103.669 31.4602 103.326 31.559 102.959 31.7537L102.168 32.1734L104.154 35.9182ZM110.224 34.1678C109.943 34.3168 109.667 34.4009 109.396 34.42C109.123 34.4372 108.872 34.3833 108.641 34.2581C108.411 34.1301 108.22 33.9208 108.065 33.6302C107.936 33.3855 107.872 33.1562 107.873 32.9423C107.875 32.7283 107.926 32.5296 108.027 32.3462C108.128 32.1627 108.264 31.993 108.433 31.8369C108.605 31.6799 108.794 31.533 109.001 31.3964C109.242 31.2338 109.436 31.0994 109.58 30.9933C109.724 30.8853 109.818 30.7887 109.864 30.7034C109.909 30.6181 109.907 30.5286 109.857 30.4349L109.848 30.4177C109.752 30.2361 109.62 30.126 109.453 30.0875C109.287 30.0479 109.1 30.0834 108.892 30.1939C108.672 30.3105 108.523 30.452 108.445 30.6185C108.365 30.783 108.343 30.949 108.378 31.1166L107.2 31.6241C107.115 31.3261 107.105 31.035 107.17 30.7508C107.234 30.4646 107.371 30.1985 107.581 29.9525C107.791 29.7035 108.073 29.4857 108.424 29.2991C108.669 29.1693 108.918 29.0738 109.173 29.0125C109.429 28.9502 109.675 28.9331 109.913 28.9613C110.153 28.9884 110.374 29.0698 110.575 29.2053C110.776 29.3389 110.946 29.5366 111.085 29.7985L112.661 32.769L111.502 33.3835L111.178 32.7727L111.144 32.791C111.146 32.9661 111.116 33.1377 111.053 33.3057C110.989 33.4718 110.89 33.6286 110.755 33.776C110.619 33.9216 110.442 34.0522 110.224 34.1678ZM110.127 33.1392C110.307 33.0439 110.447 32.9244 110.547 32.7807C110.646 32.635 110.702 32.4802 110.716 32.3163C110.729 32.1524 110.695 31.993 110.613 31.8382L110.365 31.3708C110.34 31.416 110.299 31.4668 110.244 31.5233C110.189 31.5769 110.125 31.6341 110.052 31.6949C109.978 31.7538 109.903 31.8117 109.828 31.8687C109.752 31.9238 109.683 31.9738 109.621 32.0189C109.489 32.116 109.381 32.2158 109.299 32.3185C109.216 32.4211 109.166 32.5274 109.148 32.6372C109.129 32.7451 109.15 32.8564 109.211 32.9711C109.299 33.1374 109.427 33.2325 109.594 33.2566C109.762 33.2777 109.94 33.2386 110.127 33.1392ZM114.677 33.8157C114.522 33.8978 114.37 33.9625 114.221 34.0096C114.075 34.0577 113.949 34.0868 113.842 34.0972L113.633 33.0393C113.8 33.0073 113.942 32.9627 114.058 32.9057C114.177 32.8477 114.263 32.7677 114.317 32.6657C114.372 32.5627 114.39 32.4282 114.371 32.2622L114.344 32.0378L110.361 28.3455L111.645 27.6641L114.273 30.4148L114.319 30.3905L113.523 26.6679L114.817 25.982L115.693 31.7701C115.737 32.0508 115.735 32.3165 115.686 32.5674C115.641 32.8192 115.537 33.0497 115.374 33.2588C115.211 33.4699 114.979 33.6555 114.677 33.8157Z" fill="#FF6154"/>
<circle cx="23.4778" cy="69.183" r="5.42054" transform="rotate(-27.9433 23.4778 69.183)" fill="#BD6E3C" stroke="#AA5830" stroke-width="1.39583"/>
<path d="M24.6222 63.8374C27.8719 64.5264 30.0569 68.0197 28.5469 71.1997C28.4284 68.2789 26.983 65.5612 24.6222 63.8374Z" fill="#C58054"/>
<path d="M21.817 72.0734L21.3644 71.22L21.716 66.714L22.4517 66.3238L23.0783 67.505L22.6429 67.736L22.4263 70.5862L22.4475 70.6262L25.4882 69.0133L25.9488 69.8817L21.817 72.0734ZM24.755 71.6694L24.139 70.5082L23.9586 70.1197L22.0563 66.5335L23.0724 65.9946L25.791 71.1198L24.755 71.6694Z" fill="#FFC07A"/>
</g>
<defs>
<filter id="filter0_dddddd_3_14706" x="0.509551" y="0.434154" width="140.746" height="97.0121" filterUnits="userSpaceOnUse" color-interpolation-filters="sRGB">
<feFlood flood-opacity="0" result="BackgroundImageFix"/>
<feColorMatrix in="SourceAlpha" type="matrix" values="0 0 0 0 0 0 0 0 0 0 0 0 0 0 0 0 0 0 127 0" result="hardAlpha"/>
<feOffset dy="0.0809313"/>
<feGaussianBlur stdDeviation="0.0876756"/>
<feColorMatrix type="matrix" values="0 0 0 0 0.0235294 0 0 0 0 0.0666667 0 0 0 0 0.0352941 0 0 0 0.0421718 0"/>
<feBlend mode="normal" in2="BackgroundImageFix" result="effect1_dropShadow_3_14706"/>
<feColorMatrix in="SourceAlpha" type="matrix" values="0 0 0 0 0 0 0 0 0 0 0 0 0 0 0 0 0 0 127 0" result="hardAlpha"/>
<feOffset dy="0.194489"/>
<feGaussianBlur stdDeviation="0.210697"/>
<feColorMatrix type="matrix" values="0 0 0 0 0.0235294 0 0 0 0 0.0666667 0 0 0 0 0.0352941 0 0 0 0.0605839 0"/>
<feBlend mode="normal" in2="effect1_dropShadow_3_14706" result="effect2_dropShadow_3_14706"/>
<feColorMatrix in="SourceAlpha" type="matrix" values="0 0 0 0 0 0 0 0 0 0 0 0 0 0 0 0 0 0 127 0" result="hardAlpha"/>
<feOffset dy="0.366206"/>
<feGaussianBlur stdDeviation="0.396723"/>
<feColorMatrix type="matrix" values="0 0 0 0 0.0235294 0 0 0 0 0.0666667 0 0 0 0 0.0352941 0 0 0 0.075 0"/>
<feBlend mode="normal" in2="effect2_dropShadow_3_14706" result="effect3_dropShadow_3_14706"/>
<feColorMatrix in="SourceAlpha" type="matrix" values="0 0 0 0 0 0 0 0 0 0 0 0 0 0 0 0 0 0 127 0" result="hardAlpha"/>
<feOffset dy="0.653248"/>
<feGaussianBlur stdDeviation="0.707686"/>
<feColorMatrix type="matrix" values="0 0 0 0 0.0235294 0 0 0 0 0.0666667 0 0 0 0 0.0352941 0 0 0 0.0894161 0"/>
<feBlend mode="normal" in2="effect3_dropShadow_3_14706" result="effect4_dropShadow_3_14706"/>
<feColorMatrix in="SourceAlpha" type="matrix" values="0 0 0 0 0 0 0 0 0 0 0 0 0 0 0 0 0 0 127 0" result="hardAlpha"/>
<feOffset dy="1.22183"/>
<feGaussianBlur stdDeviation="1.32365"/>
<feColorMatrix type="matrix" values="0 0 0 0 0.0235294 0 0 0 0 0.0666667 0 0 0 0 0.0352941 0 0 0 0.107828 0"/>
<feBlend mode="normal" in2="effect4_dropShadow_3_14706" result="effect5_dropShadow_3_14706"/>
<feColorMatrix in="SourceAlpha" type="matrix" values="0 0 0 0 0 0 0 0 0 0 0 0 0 0 0 0 0 0 127 0" result="hardAlpha"/>
<feOffset dy="2.9246"/>
<feGaussianBlur stdDeviation="3.16832"/>
<feColorMatrix type="matrix" values="0 0 0 0 0.0235294 0 0 0 0 0.0666667 0 0 0 0 0.0352941 0 0 0 0.15 0"/>
<feBlend mode="normal" in2="effect5_dropShadow_3_14706" result="effect6_dropShadow_3_14706"/>
<feBlend mode="normal" in="SourceGraphic" in2="effect6_dropShadow_3_14706" result="shape"/>
</filter>
</defs>
</svg>
