<svg width="35" height="23" viewBox="0 0 35 23" fill="none" xmlns="http://www.w3.org/2000/svg">
<path d="M22.2915 1.25939L23.3036 -8.9924C23.3713 -9.67815 22.5183 -10.046 22.0661 -9.52608L15.3533 -1.80881C15.15 -1.57501 14.8181 -1.50081 14.5345 -1.62574L5.02331 -5.81601C4.40235 -6.08958 3.78985 -5.41656 4.12055 -4.82405L9.23383 4.33746C9.38179 4.60255 9.34407 4.9325 9.14009 5.15736L2.29013 12.7088C1.8332 13.2125 2.28106 14.0079 2.94871 13.8784L12.8865 11.9503C13.1738 11.8946 13.4658 12.0216 13.621 12.2698L19.0973 21.0311C19.456 21.605 20.3383 21.3959 20.4013 20.7221L21.3535 10.5381C21.3817 10.2358 21.5997 9.98531 21.8952 9.91557L32.1065 7.50546C32.7669 7.34959 32.8501 6.4434 32.2292 6.16983L22.7102 1.97614C22.4304 1.85286 22.2614 1.5637 22.2915 1.25939Z" fill="#F19E04" fill-opacity="0.5" stroke="#F19E04" stroke-width="2.82916"/>
</svg>
