<svg width="75" height="76" viewBox="0 0 75 76" fill="none" xmlns="http://www.w3.org/2000/svg">
<path d="M13.9182 52.2945C11.4303 52.2754 8.98471 53.2414 7.10255 55.1235C3.98988 58.2362 1.04969 68.636 0.225521 71.7525C-0.0351462 72.7338 0.240836 73.7765 0.950003 74.501C1.49817 75.0607 2.23804 75.3635 3.00471 75.3635C3.23088 75.3635 3.4608 75.3367 3.68696 75.2831C6.67696 74.5547 16.6782 71.925 19.8101 68.7931C23.7316 64.8716 23.9807 58.7384 20.3697 55.1235C18.5987 53.3564 16.3102 52.352 13.9182 52.2945ZM15.7429 64.7298C14.7692 65.7035 11.1544 67.1257 7.2214 68.3409C8.58607 64.1127 10.1615 60.1989 11.1659 59.1907C11.9402 58.4164 12.8103 58.0177 13.784 58.0445C14.6886 58.0637 15.5819 58.4739 16.3025 59.1907C17.6749 60.5631 17.4219 63.047 15.7429 64.7298ZM43.2509 20.75C36.9105 20.75 31.7509 25.9097 31.7509 32.25C31.7509 38.5903 36.9105 43.75 43.2509 43.75C49.5912 43.75 54.7509 38.5903 54.7509 32.25C54.7509 25.9097 49.5912 20.75 43.2509 20.75ZM43.2509 38C40.0807 38 37.5009 35.4202 37.5009 32.25C37.5009 29.0798 40.0807 26.5 43.2509 26.5C46.421 26.5 49.0009 29.0798 49.0009 32.25C49.0009 35.4202 46.421 38 43.2509 38ZM74.8759 3.5C74.8759 1.913 73.5879 0.625 72.0009 0.625C52.9799 0.625 37.9685 6.34817 28.1169 16.8515L20.8642 18.0666C13.2819 19.2933 6.82271 24.4875 4.01288 31.6021L0.332795 40.7639C-0.0620384 41.7452 0.114366 42.8607 0.789033 43.6734C1.34103 44.3404 2.15368 44.7122 3.00085 44.7122C3.18868 44.7122 3.37653 44.693 3.56436 44.6585L15.9537 42.186C15.9498 42.2167 15.9383 42.2473 15.9345 42.278C15.463 44.9767 16.3754 47.7789 18.3687 49.7722L25.7364 57.1436C27.3847 58.7881 29.5851 59.6967 31.8237 59.6967C32.2914 59.6967 32.7628 59.6583 33.2305 59.5778C33.2611 59.574 33.2919 59.5625 33.3225 59.5586L30.8501 71.948C30.6431 72.983 31.0187 74.0486 31.8313 74.7233C32.3565 75.1603 33.0082 75.3865 33.6675 75.3865C34.0279 75.3865 34.392 75.3175 34.737 75.1795L43.8871 71.5072C51.0171 68.6897 56.2076 62.2304 57.4342 54.6634L58.6494 47.3955C69.1527 37.5323 74.8759 22.521 74.8759 3.5ZM67.0635 20.6503C64.6524 15.2185 60.2824 10.8485 54.8505 8.43731C60.0945 7.13015 65.0893 6.58972 69.0683 6.43256C68.9111 10.4154 68.3707 15.4063 67.0635 20.6503ZM7.64687 37.9732L9.35273 33.7296C11.4304 28.4741 16.1914 24.6485 21.7957 23.74L22.961 23.5445C20.5997 27.2858 18.7443 31.4565 17.418 36.022L7.64687 37.9732ZM32.2453 53.9007C31.3982 54.0425 30.459 53.7282 29.7997 53.0688L22.432 45.6973C21.7689 45.038 21.4507 44.0988 21.5964 43.2555C24.5251 26.3773 34.047 17.1697 44.443 12.1557C44.6845 12.1442 44.9184 12.125 45.1675 12.125C55.207 12.125 63.3759 20.2938 63.3759 30.3333C63.3759 30.5595 63.3682 30.7934 63.3567 31.031C58.3465 41.4347 49.1388 50.972 32.2453 53.9007ZM51.7609 53.7167C50.8562 59.3057 47.0305 64.0666 41.7597 66.152L37.5276 67.8501L39.4751 58.0829C44.0444 56.7527 48.215 54.8973 51.9563 52.536L51.7609 53.7167Z" fill="url(#paint0_linear_6012_1413)"/>
<defs>
<linearGradient id="paint0_linear_6012_1413" x1="37.5002" y1="149.199" x2="37.5002" y2="3.49879" gradientUnits="userSpaceOnUse">
<stop stop-color="#FCFCFD"/>
<stop offset="0.425" stop-color="#C3C2FD"/>
<stop offset="1" stop-color="#FCFCFD"/>
</linearGradient>
</defs>
</svg>
