<svg width="35" height="16" viewBox="0 0 35 16" fill="none" xmlns="http://www.w3.org/2000/svg">
<path d="M23.335 12.8044L25.5524 2.74422C25.7007 2.0713 24.8972 1.60515 24.3867 2.06793L16.8084 8.93716C16.5788 9.14526 16.2405 9.17969 15.9737 9.0221L7.02475 3.7364C6.44051 3.39131 5.75271 3.98717 6.01101 4.61463L10.0049 14.3166C10.1205 14.5973 10.044 14.9205 9.81487 15.1196L2.11991 21.808C1.60661 22.2541 1.95727 23.0969 2.63554 23.0472L12.7316 22.308C13.0235 22.2866 13.2984 22.4473 13.4231 22.7121L17.8249 32.0596C18.1132 32.6718 19.014 32.5685 19.1563 31.9069L21.3062 21.907C21.37 21.6102 21.6161 21.3872 21.9177 21.3529L32.3424 20.1674C33.0166 20.0907 33.2064 19.2007 32.6222 18.8556L23.666 13.5656C23.4027 13.4101 23.2691 13.103 23.335 12.8044Z" fill="#F19E04" fill-opacity="0.5" stroke="#F19E04" stroke-width="2.82916"/>
</svg>
