<svg width="34" height="29" viewBox="0 0 34 29" fill="none" xmlns="http://www.w3.org/2000/svg">
<path d="M20.7906 7.13081L20.372 -3.16232C20.344 -3.85083 19.4483 -4.0969 19.0724 -3.51933L13.4941 5.05387C13.3251 5.3136 13.0067 5.43308 12.7086 5.34866L2.70839 2.51711C2.05551 2.33225 1.5422 3.08367 1.95183 3.62463L8.28557 11.989C8.46884 12.231 8.47721 12.563 8.30637 12.814L2.56918 21.242C2.18647 21.8042 2.74025 22.5298 3.3835 22.3089L12.9581 19.0221C13.235 18.9271 13.5417 19.0124 13.7298 19.2367L20.3676 27.1544C20.8024 27.673 21.6472 27.3436 21.6162 26.6676L21.1477 16.45C21.1337 16.1467 21.3149 15.8684 21.5979 15.7584L31.3766 11.9562C32.009 11.7103 31.9658 10.8013 31.3129 10.6165L21.3046 7.7826C21.0104 7.6993 20.803 7.43634 20.7906 7.13081Z" fill="#F19E04" fill-opacity="0.5" stroke="#F19E04" stroke-width="2.82916"/>
</svg>
