<svg width="23" height="35" viewBox="0 0 23 35" fill="none" xmlns="http://www.w3.org/2000/svg">
<path d="M7.86457 9.4144L0.755189 1.95918C0.279642 1.4605 -0.555622 1.86698 -0.456623 2.54891L1.01286 12.6711C1.05738 12.9777 0.8971 13.2776 0.617419 13.4111L-8.76333 17.8858C-9.37577 18.1779 -9.26528 19.0812 -8.60049 19.2171L1.67872 21.3187C1.97616 21.3795 2.20161 21.6233 2.23896 21.9246L3.49325 32.0426C3.57692 32.7175 4.47188 32.897 4.80928 32.3065L9.83136 23.517C9.97657 23.2628 10.2633 23.1244 10.5526 23.1687L20.7654 24.7341C21.4343 24.8366 21.8515 24.0315 21.3819 23.5442L14.2848 16.1786C14.0742 15.96 14.0265 15.6314 14.1664 15.3619L19.0016 6.05063C19.3143 5.44843 18.6818 4.79415 18.0694 5.08629L8.68095 9.56467C8.40495 9.69632 8.0756 9.6357 7.86457 9.4144Z" fill="#F19E04" fill-opacity="0.5" stroke="#F19E04" stroke-width="2.82916"/>
</svg>
