<svg width="30" height="35" viewBox="0 0 30 35" fill="none" xmlns="http://www.w3.org/2000/svg">
<path d="M21.5821 13.3302L21.9491 3.0351C21.9736 2.34646 21.0992 2.03285 20.6805 2.58011L14.4651 10.7033C14.2768 10.9494 13.9503 11.0443 13.6594 10.9374L3.90407 7.35207C3.26717 7.11799 2.6981 7.82811 3.06531 8.39871L8.74328 17.2214C8.90758 17.4767 8.89063 17.8083 8.70116 18.0456L2.33844 26.0119C1.91401 26.5433 2.41089 27.309 3.06909 27.1378L12.8663 24.5901C13.1496 24.5165 13.449 24.6249 13.6194 24.8629L19.6346 33.2634C20.0286 33.8136 20.8961 33.5495 20.9167 32.8731L21.2281 22.6495C21.2373 22.346 21.4392 22.0823 21.7297 21.9942L31.7696 18.9482C32.419 18.7512 32.4452 17.8416 31.8083 17.6075L22.045 14.0193C21.7579 13.9138 21.5712 13.6358 21.5821 13.3302Z" fill="#F19E04" fill-opacity="0.5" stroke="#F19E04" stroke-width="2.82916"/>
</svg>
