<svg width="96" height="41" viewBox="0 0 96 41" fill="none" xmlns="http://www.w3.org/2000/svg">
<g clip-path="url(#clip0_3_14614)" filter="url(#filter0_dddddd_3_14614)">
<path d="M80.7738 24.8994L12.9434 6.11735C10.6823 5.49128 8.29231 6.71933 7.49598 8.90117L1.8435 9.41804C1.0256 9.47985 0.399955 10.2355 0.461763 11.0534C0.495186 11.5111 0.731823 11.929 1.11537 12.1633L5.70335 15.2595L2.40002 27.1893C1.73277 29.5991 3.15259 32.1063 5.56235 32.7735L73.3928 51.5555C75.8025 52.2228 78.3097 50.803 78.977 48.3932L83.9361 30.4836C84.6034 28.0738 83.1835 25.5666 80.7738 24.8994Z" fill="#002E47"/>
<path d="M17.2984 14.9147C17.7739 14.4698 18.4893 14.3155 19.1058 14.5183C19.3141 14.576 19.4843 14.6551 19.6843 14.7425C19.8248 14.8135 19.9869 14.9224 20.1109 15.0528C20.2432 15.1535 20.3375 15.2757 20.4318 15.3979C20.4963 15.5119 20.5906 15.6341 20.6551 15.7481C20.8368 15.6703 20.997 15.5545 21.1275 15.4304C21.2794 15.3444 21.3883 15.1823 21.4295 15.0336C21.4542 14.9443 21.4492 14.8469 21.4442 14.7494C21.4094 14.6436 21.3663 14.5677 21.3233 14.4917C21.2505 14.4075 21.186 14.2935 21.1132 14.2093C20.9892 14.0789 20.8652 13.9484 20.7329 13.8477C20.5493 13.7008 20.3576 13.5837 20.1576 13.4962C19.9063 13.3626 19.6468 13.2587 19.379 13.1846C18.8435 13.0363 18.2833 12.9773 17.7496 13.0537C17.2837 13.1169 16.8146 13.3073 16.4182 13.5819C16.0219 13.8565 15.6603 14.2369 15.4177 14.6502C15.1289 15.1148 14.8914 15.6255 14.7729 16.1693C14.6246 16.7048 14.5358 17.2568 14.5445 17.8037C14.54 18.2829 14.6329 18.7571 14.8233 19.2262C15.0219 19.6656 15.3346 20.0404 15.7016 20.3343C16.1497 20.6826 16.6605 20.9201 17.196 21.0684C17.4638 21.1425 17.7695 21.1951 18.0455 21.2395C18.2702 21.2377 18.4949 21.2358 18.7279 21.2043C18.8931 21.186 19.0584 21.1676 19.2021 21.1113C19.3078 21.0766 19.3838 21.0335 19.4895 20.9987C19.5655 20.9557 19.6497 20.8829 19.7339 20.8102C19.7884 20.7292 19.8346 20.6779 19.8593 20.5886C19.884 20.4994 19.8708 20.4317 19.8657 20.3342C19.8607 20.2367 19.8177 20.1607 19.8126 20.0632C19.7778 19.9575 19.7348 19.8815 19.7 19.7758L19.6089 19.5263C19.533 19.5694 19.4272 19.6042 19.2835 19.6605C19.1398 19.7168 18.9961 19.7731 18.8606 19.7996C18.6871 19.8477 18.5219 19.866 18.3567 19.8843C18.1617 19.8944 17.9452 19.8664 17.737 19.8088C17.38 19.7099 17.0692 19.5598 16.7914 19.2907C16.5648 19.0678 16.4142 18.8019 16.3016 18.5145C16.1973 18.1973 16.1606 17.8668 16.1835 17.5529C16.2146 17.2091 16.2837 16.8439 16.3743 16.5166C16.465 16.1894 16.5853 15.8704 16.7354 15.5596C16.8526 15.3678 17.0457 15.133 17.2984 14.9147Z" fill="#002E47"/>
<path d="M16.9278 21.5704C16.3626 21.4139 15.8303 21.1384 15.3524 20.7818C14.9044 20.4335 14.5487 19.9827 14.3368 19.4756C14.0951 18.9602 13.9889 18.4183 13.9885 17.8417C13.9962 17.2352 14.0635 16.6452 14.258 16.0585C14.4145 15.4932 14.6388 14.9147 14.9738 14.3989C15.2708 13.9046 15.6704 13.5027 16.1129 13.1768C16.5853 12.8592 17.1221 12.6555 17.6558 12.579C18.287 12.4975 18.9149 12.5433 19.5017 12.7378C19.7992 12.8202 20.0885 12.9323 20.3695 13.0742C20.591 13.1996 20.8125 13.325 21.0258 13.4801C21.1878 13.5891 21.3416 13.7277 21.4872 13.8962C21.5897 13.9886 21.6542 14.1026 21.7485 14.2248C21.8346 14.3767 21.8991 14.4907 21.9257 14.6262C21.9737 14.7996 21.9838 14.9946 21.9344 15.1731C21.8602 15.4409 21.6671 15.6757 21.4607 15.8427C21.3005 15.9585 21.1023 16.0958 20.9124 16.2034C20.6845 16.3325 20.3572 16.2419 20.2364 15.9842C20.1718 15.8702 20.1073 15.7563 20.0345 15.672C19.97 15.5581 19.8972 15.4739 19.7864 15.4112C19.6839 15.3187 19.5814 15.2263 19.4409 15.1553C19.3004 15.0844 19.1598 15.0134 18.9813 14.964C18.4838 14.7942 18.0014 14.9169 17.6266 15.2295C17.4499 15.4048 17.2948 15.6181 17.1694 15.8396C17.0275 16.1207 16.9154 16.4099 16.833 16.7074C16.7506 17.0049 16.6897 17.3404 16.6669 17.6544C16.6605 17.9089 16.6838 18.1716 16.7451 18.4128C16.8147 18.6242 16.952 18.8224 17.0976 18.9908C17.2729 19.1675 17.5242 19.3011 17.7919 19.3753C17.9704 19.4247 18.1274 19.4362 18.2546 19.4394C18.3819 19.4426 18.5174 19.416 18.6528 19.3895C18.7586 19.3547 18.894 19.3281 18.97 19.2851C19.084 19.2206 19.1897 19.1858 19.2657 19.1427C19.3796 19.0782 19.5366 19.0896 19.6556 19.1226C19.7746 19.1555 19.8689 19.2777 19.9335 19.3917L20.0328 19.6114C20.0676 19.7171 20.1321 19.8311 20.1669 19.9368C20.1934 20.0723 20.2282 20.178 20.2333 20.2755C20.2598 20.411 20.2484 20.568 20.2369 20.725C20.1875 20.9035 20.1166 21.044 19.9861 21.168C19.9861 21.168 19.9779 21.1978 19.9481 21.1895C19.8557 21.292 19.7335 21.3863 19.5898 21.4426C19.4758 21.5072 19.3321 21.5635 19.2264 21.5983C19.0529 21.6463 18.8497 21.6861 18.6547 21.6962C18.4218 21.7278 18.159 21.7512 17.9128 21.715C17.5691 21.6839 17.2633 21.6313 16.9361 21.5406C17.0171 21.5951 16.9576 21.5786 16.9278 21.5704ZM19.1406 13.6948C18.6943 13.5713 18.2531 13.5452 17.7872 13.6084C17.389 13.6583 16.9958 13.8057 16.6755 14.0373C16.3171 14.2904 16.0398 14.5979 15.8137 14.9517C15.5331 15.3866 15.3418 15.8461 15.2018 16.3518C15.0617 16.8576 14.9894 17.3501 14.9766 17.859C14.9885 18.2787 15.0682 18.6852 15.2156 19.0783C15.3712 19.4417 15.6325 19.7703 15.9483 20.0179C16.3452 20.32 16.7667 20.5328 17.2427 20.6646C17.5105 20.7388 17.7567 20.7749 18.0327 20.8193C18.2194 20.839 18.4144 20.8289 18.5879 20.7808C18.7531 20.7625 18.8588 20.7277 18.9943 20.7012C19.062 20.6879 19.1 20.6664 19.176 20.6234C19.214 20.6019 19.252 20.5804 19.29 20.5588L19.2982 20.5291C19.2849 20.4614 19.2717 20.3936 19.2369 20.2879C19.1311 20.3227 18.9957 20.3492 18.8899 20.384C18.6867 20.4238 18.4835 20.4637 18.2885 20.4737C18.0341 20.4673 17.7796 20.4609 17.5498 20.3653C17.1333 20.25 16.7415 20.0454 16.4042 19.7598C16.1264 19.4907 15.903 19.1405 15.7771 18.7854C15.6595 18.4005 15.6014 18.032 15.649 17.6288C15.6586 17.2471 15.7359 16.8521 15.8348 16.4951C15.9336 16.1381 16.0622 15.7893 16.2503 15.457C16.4087 15.1165 16.648 14.8304 16.9171 14.5526C17.5529 13.9919 18.4417 13.7896 19.2367 14.0418C19.445 14.0994 19.7045 14.2033 19.926 14.3287C20.088 14.4376 20.2798 14.5548 20.4336 14.6935C20.5576 14.8239 20.6817 14.9544 20.776 15.0766C20.776 15.0766 20.776 15.0766 20.7842 15.0468C20.8602 15.0038 20.8766 14.9443 20.9229 14.893C20.9096 14.8253 20.8881 14.7873 20.8666 14.7493C20.8235 14.6733 20.7723 14.6271 20.6995 14.5429C20.6052 14.4207 20.5027 14.3282 20.3919 14.2655C20.2299 14.1566 20.0679 14.0477 19.9059 13.9388C19.7058 13.8514 19.4678 13.7855 19.2298 13.7196C19.2001 13.7113 19.1703 13.7031 19.1406 13.6948Z" fill="#002E47"/>
<path d="M26.0976 19.6896C26.18 19.3921 26.2409 19.0566 26.234 18.7344C26.2404 18.4799 26.1575 18.2008 26.0285 17.9728C25.8696 17.7367 25.6728 17.522 25.4513 17.3966C25.1488 17.2167 24.8 17.0881 24.443 16.9893C24.1752 16.9151 23.8695 16.8625 23.5935 16.8181C23.3473 16.782 23.0846 16.8053 22.8301 16.7989C22.6351 16.809 22.4616 16.8571 22.2799 16.9349C22.1742 16.9697 22.0818 17.0722 22.0191 17.1829C21.9861 17.3019 22.0127 17.4374 22.0095 17.5647C22.0278 17.7299 22.0758 17.9034 22.1321 18.0471C22.4113 17.9642 22.6823 17.9111 22.9747 17.896C23.2754 17.8511 23.5812 17.9038 23.8787 17.9862C24.1547 18.0305 24.406 18.1642 24.573 18.3706C24.7103 18.5688 24.7337 18.8315 24.638 19.0613L24.5804 19.2695L24.3424 19.2036C24.2531 19.1789 24.1639 19.1542 24.0746 19.1295C23.7689 19.0768 23.4631 19.0242 23.1574 18.9716C22.8434 18.9487 22.4914 18.9473 22.1825 19.022C21.8818 19.0668 21.5564 19.2009 21.312 19.3895C21.0296 19.5996 20.8497 19.9021 20.7806 20.2674C20.7065 20.5351 20.6918 20.8193 20.7152 21.0821C20.7468 21.315 20.8461 21.5347 20.9834 21.7329C21.129 21.9013 21.2828 22.04 21.4745 22.1572C21.6663 22.2743 21.8663 22.3617 22.0746 22.4194C22.4018 22.51 22.7753 22.5494 23.1355 22.521C23.4065 22.4679 23.6857 22.385 23.9136 22.256C23.8939 22.4427 23.942 22.6162 24.0578 22.7764C24.2033 22.9448 24.3951 23.0619 24.6413 23.0981C24.7603 23.131 24.8793 23.164 25.0066 23.1672C25.1338 23.1704 25.2908 23.1818 25.4263 23.1553C25.3333 22.6811 25.3677 22.2102 25.521 21.7721L26.0976 19.6896ZM24.0962 21.2495C24.0797 21.309 24.0252 21.39 23.9493 21.433C23.865 21.5058 23.7593 21.5406 23.6536 21.5754C23.5181 21.6019 23.4124 21.6367 23.2852 21.6335C23.1579 21.6303 23.0009 21.6189 22.8522 21.5777C22.6059 21.5415 22.4224 21.3946 22.2933 21.1667C22.2155 20.985 22.2137 20.7603 22.2631 20.5818C22.3125 20.4033 22.3835 20.2628 22.5437 20.147C22.6659 20.0527 22.8178 19.9666 22.983 19.9483C23.1565 19.9002 23.3515 19.8902 23.53 19.9396C23.7167 19.9593 23.9035 19.9789 24.1117 20.0366L24.2605 20.0778L24.4092 20.119L24.0962 21.2495Z" fill="#002E47"/>
<path d="M21.9941 22.9415C21.9644 22.9332 21.9346 22.925 21.9049 22.9167C21.6669 22.8508 21.4371 22.7552 21.1858 22.6215C20.9345 22.4879 20.7295 22.303 20.5707 22.0668C20.3821 21.8224 20.248 21.497 20.2031 21.1963C20.1367 20.8576 20.1761 20.4841 20.2667 20.1569C20.3605 19.7024 20.6246 19.3271 20.9615 19.036C21.2818 18.8044 21.6155 18.6405 21.9839 18.5824C21.8352 18.5412 21.7029 18.4405 21.6466 18.2968C21.5688 18.1151 21.4992 17.9036 21.4676 17.6707C21.4493 17.5055 21.4392 17.3105 21.4589 17.1237C21.4672 17.094 21.4754 17.0642 21.4836 17.0345C21.5875 16.775 21.8022 16.5782 22.0516 16.4871C22.2631 16.4175 22.4745 16.3479 22.7372 16.3246C23.0297 16.3095 23.3222 16.2944 23.5982 16.3387C23.9121 16.3616 24.2476 16.4225 24.5451 16.5049C24.9319 16.612 25.3104 16.7488 25.6642 16.9749C25.9667 17.1548 26.2446 17.4239 26.4167 17.7278C26.5888 18.0317 26.6849 18.3786 26.6835 18.7306C26.6739 19.1123 26.6428 19.456 26.5142 19.8048L25.9211 21.9468L25.9128 21.9765C25.7842 22.3253 25.7746 22.707 25.8328 23.0755C25.8593 23.2109 25.8181 23.3597 25.7554 23.4705C25.663 23.573 25.5408 23.6673 25.4135 23.6641C25.2483 23.6824 25.0831 23.7007 24.8964 23.681C24.7394 23.6696 24.5906 23.6284 24.4419 23.5872C24.1064 23.5263 23.8336 23.3547 23.6153 23.1021C23.6153 23.1021 23.5855 23.0938 23.5937 23.0641C23.5722 23.0261 23.521 22.9799 23.5077 22.9121C23.402 22.9469 23.2665 22.9735 23.1393 22.9703C22.7841 23.0961 22.3809 23.0485 21.9941 22.9415ZM22.7547 19.5005C22.5977 19.4891 22.4622 19.5156 22.3185 19.5719C22.0773 19.6333 21.8279 19.7243 21.6595 19.8699C21.491 20.0154 21.3739 20.2072 21.308 20.4452L21.2997 20.475C21.2421 20.6832 21.2224 20.87 21.2622 21.0732C21.2888 21.2086 21.3451 21.3524 21.4311 21.5043C21.5254 21.6265 21.6279 21.719 21.7684 21.7899C21.9007 21.8906 22.0792 21.94 22.228 21.9812C22.4065 22.0306 22.585 22.0801 22.7502 22.0617C22.385 21.9926 22.0691 21.745 21.8755 21.4032L21.854 21.3652C21.7414 21.0777 21.7048 20.7473 21.7872 20.4498C21.8613 20.182 21.9949 19.9308 22.2311 19.7719C22.3616 19.6479 22.5515 19.5403 22.7547 19.5005ZM24.4244 22.4933C24.4972 22.5775 24.608 22.6402 24.7055 22.6352L24.7352 22.6434L24.8245 22.6681C24.8258 22.3162 24.8867 21.9807 25.0071 21.6617L25.5919 19.5494C25.6661 19.2817 25.7105 19.0057 25.7169 18.7512C25.6986 18.586 25.6802 18.4207 25.5727 18.2308C25.4866 18.0788 25.3328 17.9402 25.1708 17.8312C24.898 17.6596 24.6088 17.5475 24.3113 17.4651C24.0435 17.391 23.7973 17.3548 23.5213 17.3104C23.3048 17.2825 23.0801 17.2844 22.8471 17.3159C22.7199 17.3127 22.6141 17.3475 22.4704 17.4038C22.4622 17.4336 22.4837 17.4716 22.4837 17.4716C22.6192 17.445 22.7547 17.4185 22.9199 17.4002C23.2883 17.342 23.6618 17.3814 24.0188 17.4802C24.384 17.5493 24.7163 17.7374 24.9562 18.0281C24.9777 18.066 25.0074 18.0743 25.0289 18.1123C25.2226 18.4542 25.2725 18.8524 25.1356 19.2309L25.0862 19.4094C25.0368 19.5879 24.9146 19.6822 24.7708 19.7385C24.8949 19.8689 24.9429 20.0424 24.8935 20.2209L24.5722 21.3811L24.564 21.4109C24.4848 21.5811 24.3759 21.7432 24.224 21.8292L24.2157 21.859C24.3777 21.9679 24.4556 22.1496 24.4359 22.3363C24.3897 22.3876 24.4029 22.4553 24.4244 22.4933ZM22.7708 20.9464C22.8138 21.0223 22.8733 21.0388 22.9625 21.0635L23.022 21.08C23.1113 21.1047 23.2005 21.1294 23.298 21.1244C23.3955 21.1193 23.4633 21.1061 23.5607 21.101C23.5987 21.0795 23.6285 21.0878 23.6665 21.0662L23.823 20.501C23.704 20.468 23.6065 20.4731 23.4875 20.4401C23.3603 20.4369 23.233 20.4337 23.0975 20.4603C23.0001 20.4653 22.9241 20.5083 22.8779 20.5596C22.8399 20.5811 22.7936 20.6324 22.8069 20.7001L22.7987 20.7299C22.7442 20.8109 22.7277 20.8704 22.7708 20.9464ZM23.7387 18.4917C23.5007 18.4258 23.2842 18.3979 23.0513 18.4295C22.9158 18.456 22.7886 18.4528 22.6531 18.4794C22.8481 18.4693 23.043 18.4592 23.2298 18.4789C23.5437 18.5018 23.8197 18.5462 24.1172 18.6286C24.0362 18.5741 23.9255 18.5114 23.8065 18.4785C23.7767 18.4702 23.7767 18.4702 23.747 18.462L23.7387 18.4917Z" fill="#002E47"/>
<path d="M32.3412 19.8169C32.2203 19.5592 32.0235 19.3445 31.7805 19.1811C31.5374 19.0178 31.2862 18.8841 31.0184 18.81C30.6912 18.7194 30.3177 18.68 29.979 18.7464C29.7378 18.8077 29.4883 18.8988 29.2902 19.0361C29.3098 18.8494 29.232 18.6677 29.0782 18.529C28.8947 18.3821 28.6947 18.2947 28.4567 18.2288L28.2484 18.1711C28.1889 18.1546 28.1294 18.1382 28.0914 18.1597L27.9345 18.1482L25.7762 25.9428L27.3232 26.3711L28.1058 23.5449C28.119 23.6126 28.1406 23.6506 28.1918 23.6968C28.2646 23.781 28.2994 23.8868 28.4101 23.9495C28.5127 24.0419 28.6449 24.1426 28.7855 24.2135C28.9475 24.3225 29.1475 24.4099 29.3342 24.4296C29.602 24.5037 29.8862 24.5183 30.1787 24.5032C30.4711 24.4881 30.7586 24.3755 31.0245 24.2249C31.3366 24.0231 31.5975 23.775 31.8071 23.4807C32.0877 23.0459 32.279 22.5864 32.419 22.0806C32.5426 21.6344 32.5984 21.2014 32.5947 20.7519C32.5499 20.4512 32.4753 20.1423 32.3412 19.8169ZM30.1443 22.8922C29.8834 23.1402 29.5068 23.2281 29.1877 23.1077C29.0092 23.0583 28.839 22.9791 28.6852 22.8405C28.5827 22.748 28.4801 22.6556 28.4156 22.5416L29.0829 20.1318C29.124 19.9831 29.2247 19.8508 29.3684 19.7945C29.5881 19.6952 29.8426 19.7016 30.0724 19.7972C30.2509 19.8467 30.4211 19.9258 30.5749 20.0645C30.699 20.195 30.7933 20.3172 30.8413 20.4906C30.8894 20.6641 30.8995 20.8591 30.8798 21.0458C30.8519 21.2623 30.824 21.4788 30.7663 21.687C30.6642 22.1713 30.4597 22.5631 30.1443 22.8922Z" fill="#002E47"/>
<path d="M27.198 26.8165L25.651 26.3882C25.3833 26.314 25.2327 26.0481 25.3068 25.7803L27.4651 17.9858C27.531 17.7478 27.7672 17.589 28.0134 17.6251L28.1704 17.6366C28.2299 17.653 28.2976 17.6398 28.3869 17.6645L28.6249 17.7304C28.8926 17.8045 29.1737 17.9464 29.4085 18.1395C29.4895 18.194 29.5325 18.27 29.6053 18.3542C29.711 18.3194 29.7788 18.3061 29.8845 18.2713C30.3289 18.1702 30.7701 18.1963 31.1784 18.3413C31.4759 18.4237 31.7867 18.5738 32.0512 18.7752C32.3455 18.9848 32.5853 19.2755 32.7492 19.6091C32.9346 19.9807 33.0225 20.3574 33.0344 20.7771C33.0513 21.2943 32.979 21.7868 32.8472 22.2628C32.6989 22.7983 32.4912 23.3173 32.1726 23.7737C31.9383 24.1572 31.6014 24.4483 31.2431 24.7014C30.9012 24.895 30.546 25.0209 30.1561 25.0411C29.8256 25.0777 29.4901 25.0168 29.1546 24.956C28.9166 24.89 28.6869 24.7944 28.4653 24.669C28.4141 24.6228 28.3546 24.6063 28.3033 24.5601L27.7761 26.4641C27.7614 26.7483 27.4658 26.8907 27.198 26.8165ZM26.4204 25.5762L26.9856 25.7327L27.6282 23.4122C27.6858 23.2039 27.8543 23.0584 28.079 23.0566C28.1087 23.0648 28.1087 23.0648 28.1467 23.0433C28.1037 22.9673 28.0227 22.9128 27.9797 22.8369C27.8854 22.7147 27.8671 22.5494 27.9 22.4304L28.5673 20.0207C28.6332 19.7827 28.7801 19.5991 28.9783 19.4618C28.846 19.3611 28.7897 19.2174 28.7796 19.0224C28.7879 18.9927 28.7664 18.9547 28.7448 18.9167C28.6423 18.8243 28.5018 18.7533 28.3531 18.7121L28.3233 18.7039L26.4204 25.5762ZM28.6163 23.4296C28.6676 23.4758 28.6809 23.5435 28.7404 23.56C28.8429 23.6525 28.9239 23.7069 29.0347 23.7696C29.1752 23.8406 29.3157 23.9115 29.4347 23.9444C29.6727 24.0103 29.8892 24.0383 30.1222 24.0067C30.3469 24.0048 30.5583 23.9353 30.7565 23.798C30.9927 23.6391 31.2073 23.4423 31.3707 23.1993C31.6051 22.8157 31.7881 22.3859 31.9034 21.9694C32.0188 21.5529 32.0879 21.1877 32.076 20.768C32.0526 20.5053 31.9913 20.2641 31.9002 20.0146C31.8224 19.8329 31.6768 19.6645 31.5148 19.5556C31.323 19.4384 31.1313 19.3213 30.923 19.2636C30.6553 19.1895 30.371 19.1748 30.1298 19.2362C30.1298 19.2362 30.1001 19.2279 30.0918 19.2577L30.2703 19.3071C30.5381 19.3812 30.7596 19.5066 30.9647 19.6915C31.1697 19.8764 31.2988 20.1044 31.3601 20.3456C31.4215 20.5868 31.4448 20.8495 31.4087 21.0957C31.3725 21.342 31.3364 21.5882 31.2705 21.8262C31.1602 22.3402 30.8929 22.8427 30.5231 23.2528L30.5148 23.2826C30.1235 23.6547 29.5734 23.7907 29.0461 23.6126C28.8974 23.5714 28.7569 23.5005 28.6163 23.4296ZM29.318 22.6309C29.4965 22.6803 29.6617 22.662 29.7921 22.5379C30.0233 22.2816 30.2114 21.9493 30.2805 21.5841L30.2887 21.5544C30.3381 21.3759 30.3876 21.1974 30.3775 21.0024C30.3807 20.8751 30.3839 20.7479 30.3573 20.6124C30.3441 20.5447 30.301 20.4687 30.2498 20.4225C30.1688 20.368 30.0877 20.3136 29.9687 20.2806C29.939 20.2724 29.9092 20.2641 29.9092 20.2641C29.82 20.2394 29.701 20.2065 29.5953 20.2413L29.587 20.271L28.9939 22.413C29.0237 22.4213 29.0154 22.451 29.0452 22.4592C29.08 22.565 29.199 22.5979 29.318 22.6309C29.2882 22.6226 29.2882 22.6226 29.318 22.6309Z" fill="#002E47"/>
<path d="M36.1275 24.6445C36.0895 24.666 36.0515 24.6875 35.9838 24.7008C35.9078 24.7438 35.8401 24.7571 35.7426 24.7621C35.6368 24.7969 35.5394 24.802 35.4419 24.807C35.3444 24.812 35.2171 24.8088 35.1279 24.7841C34.7114 24.6688 34.5475 24.3352 34.6958 23.7996L35.3631 21.3899L36.9398 21.8265L37.2529 20.696L35.6761 20.2594L35.8985 19.4561C35.9397 19.3074 35.9594 19.1206 35.9328 18.9852C35.9063 18.8497 35.8417 18.7357 35.769 18.6515C35.6962 18.5673 35.5937 18.4748 35.4829 18.4121C35.3721 18.3494 35.2531 18.3165 35.1341 18.2835L34.9556 18.2341C34.8961 18.2176 34.8366 18.2012 34.7689 18.2144L34.5822 18.1948L33.1241 23.4605C33.0747 23.639 33.0335 23.7878 33.0138 23.9745C32.9726 24.1233 32.9827 24.3183 32.9712 24.4752C32.9781 24.7975 33.1205 25.0931 33.309 25.3375C33.5786 25.6364 33.9407 25.8327 34.3356 25.9101C34.5736 25.976 34.7901 26.0039 35.0066 26.0318C35.1934 26.0515 35.3966 26.0117 35.5998 25.9718C35.7353 25.9453 35.879 25.889 36.0012 25.7947C36.1152 25.7302 36.1696 25.6491 36.2026 25.5301C36.2355 25.4111 36.2387 25.2839 36.2122 25.1484C36.2318 24.9617 36.1838 24.7882 36.1275 24.6445Z" fill="#002E47"/>
<path d="M34.1532 26.3403C33.707 26.2167 33.3234 25.9824 33.0323 25.6455C32.7412 25.3087 32.5641 24.9073 32.5604 24.4578C32.5503 24.2629 32.5485 24.0381 32.6062 23.8299C32.6258 23.6432 32.6835 23.4349 32.7329 23.2564L34.1828 18.0204C34.2487 17.7824 34.4848 17.6235 34.7311 17.6597L34.9178 17.6794C34.9773 17.6958 35.0451 17.6826 35.1343 17.7073L35.3426 17.7649C35.4913 17.8061 35.6401 17.8473 35.7806 17.9183C35.9508 17.9974 36.1046 18.1361 36.2287 18.2666C36.3742 18.435 36.452 18.6167 36.4836 18.8496C36.5152 19.0826 36.5088 19.3371 36.4429 19.5751L36.3605 19.8726L37.4613 20.1774C37.729 20.2515 37.8796 20.5174 37.8055 20.7852L37.476 21.9752C37.4018 22.243 37.1359 22.3935 36.8682 22.3194L35.7674 22.0146L35.232 23.9484C35.1496 24.2459 35.2091 24.2623 35.2983 24.2871C35.3578 24.3035 35.3876 24.3118 35.4553 24.2985C35.5231 24.2852 35.5908 24.2719 35.6585 24.2587C35.6965 24.2372 35.7643 24.2239 35.8022 24.2024C35.8402 24.1809 35.8782 24.1593 35.908 24.1676C36.0219 24.103 36.1872 24.0847 36.3359 24.1259C36.4847 24.1671 36.5789 24.2893 36.6352 24.433C36.7131 24.6147 36.7529 24.8179 36.8009 24.9914C36.8408 25.1946 36.8508 25.3896 36.7932 25.5979C36.7273 25.8359 36.5721 26.0491 36.3822 26.1567C36.222 26.2725 36.0403 26.3503 35.8073 26.3819C35.5661 26.4432 35.3414 26.4451 35.0869 26.4387C34.8324 26.4323 34.5565 26.3879 34.2887 26.3137C34.2425 26.365 34.183 26.3485 34.1532 26.3403ZM34.9815 18.722L33.647 23.5415C33.6058 23.6903 33.5646 23.839 33.5614 23.9663L33.5531 23.996C33.5202 24.115 33.517 24.2422 33.5435 24.3777C33.5536 24.5727 33.6529 24.7924 33.7687 24.9526C33.9655 25.1672 34.2168 25.3009 34.5226 25.3535L34.5523 25.3617C34.7308 25.4112 34.9473 25.4391 35.134 25.4588C35.291 25.4702 35.4265 25.4436 35.5917 25.4253C35.6595 25.4121 35.7652 25.3773 35.8114 25.326C35.8197 25.2963 35.8197 25.2963 35.8279 25.2665C35.7304 25.2715 35.6247 25.3063 35.5272 25.3114C35.362 25.3297 35.205 25.3182 35.0562 25.2771C34.3422 25.0793 34.0575 24.488 34.2799 23.6848L34.9472 21.275C35.0213 21.0072 35.2873 20.8567 35.555 20.9308L36.6558 21.2356L36.7052 21.0571L35.6044 20.7523C35.3367 20.6782 35.1861 20.4122 35.2602 20.1445L35.4827 19.3412C35.5074 19.252 35.5321 19.1627 35.4973 19.057C35.5055 19.0273 35.484 18.9893 35.4328 18.943C35.4112 18.9051 35.36 18.8588 35.3005 18.8424C35.2112 18.8176 35.1302 18.7632 35.041 18.7385L34.9815 18.722Z" fill="#002E47"/>
<path d="M42.4141 22.7658C42.2718 22.4701 42.0832 22.2257 41.8484 22.0326C41.5624 21.7932 41.1921 21.6266 40.8351 21.5278C40.5078 21.4371 40.1641 21.406 39.8419 21.4129C39.5114 21.4495 39.1727 21.5159 38.8688 21.688C38.5352 21.8519 38.2446 22.0917 38.0349 22.386C37.7791 22.7316 37.5745 23.1233 37.4592 23.5398C37.2894 24.0374 37.2468 24.5381 37.2935 25.0635C37.3434 25.4617 37.4991 25.8251 37.6927 26.167C37.8945 26.4791 38.1806 26.7185 38.4831 26.8984C38.8154 27.0865 39.1262 27.2366 39.4832 27.3354C39.8402 27.4343 40.1757 27.4952 40.5277 27.4965C40.7821 27.5029 41.0531 27.4498 41.2943 27.3885C41.4975 27.3487 41.6362 27.1949 41.7154 27.0246C41.7565 26.8759 41.7382 26.7106 41.6902 26.5372C41.6421 26.3637 41.594 26.1902 41.5162 26.0085L41.2206 26.1509C41.1066 26.2154 41.0009 26.2502 40.8654 26.2768C40.7299 26.3033 40.5647 26.3216 40.4375 26.3184C40.2805 26.307 40.0937 26.2873 39.9152 26.2379C39.4905 26.1523 39.1449 25.8965 38.9596 25.5248C38.8039 25.1614 38.7838 24.7715 38.8611 24.3765L42.1931 25.2991C42.2096 25.2396 42.2179 25.2098 42.2641 25.1586C42.2806 25.0991 42.297 25.0396 42.3217 24.9503C42.3465 24.8611 42.3547 24.8313 42.3794 24.7421L42.4206 24.5933C42.503 24.2958 42.5556 23.9901 42.5487 23.6679C42.6096 23.3324 42.535 23.0234 42.4141 22.7658ZM39.138 23.4922C39.1989 23.1567 39.4002 22.8922 39.6529 22.6738C39.8891 22.515 40.2195 22.4784 40.4873 22.5525C40.793 22.6052 41.0576 22.8065 41.1701 23.094C41.2448 23.4029 41.2434 23.7549 41.1313 24.0441L39.138 23.4922Z" fill="#002E47"/>
<path d="M39.4413 27.8365C39.4115 27.8282 39.3818 27.82 39.3818 27.82C38.995 27.7129 38.6247 27.5463 38.2627 27.35C37.8791 27.1156 37.5716 26.8383 37.3184 26.4799C37.0438 26.0836 36.8832 25.6227 36.82 25.1568C36.76 24.5636 36.8273 23.9736 36.9756 23.4381C37.1074 22.9621 37.2987 22.5026 37.6305 22.114C37.8863 21.7684 38.2529 21.4856 38.6328 21.2704C39.0045 21.0851 39.3894 20.9674 39.8091 20.9555C40.199 20.9354 40.6022 20.983 40.9593 21.0818C41.3758 21.1971 41.8055 21.3802 42.1429 21.6658C42.4587 21.9134 42.6903 22.2338 42.8541 22.5674C43.018 22.9011 43.0679 23.2993 43.0963 23.6595C43.0949 24.0115 43.0556 24.3849 42.9649 24.7122L42.8084 25.2774C42.7837 25.3667 42.759 25.4559 42.7128 25.5072C42.6171 25.737 42.3594 25.8578 42.1214 25.7919L41.9727 25.7507C42.0024 25.759 41.9942 25.7887 41.986 25.8185C42.0638 26.0002 42.1334 26.2116 42.2029 26.4231C42.2725 26.6345 42.2743 26.8592 42.2382 27.1055L42.2135 27.1947C42.0849 27.5435 41.7942 27.7833 41.4473 27.8795C41.1599 27.9921 40.8592 28.0369 40.5452 28.014C40.2015 27.9829 39.828 27.9436 39.4413 27.8365ZM39.6536 26.8382C39.9511 26.9206 40.2568 26.9733 40.5791 26.9664C40.774 26.9563 40.969 26.9462 41.1805 26.8767C41.2102 26.8849 41.2184 26.8551 41.2482 26.8634C41.2779 26.8716 41.2862 26.8419 41.2862 26.8419C41.3027 26.7824 41.2894 26.7146 41.2679 26.6766C41.2001 26.6899 41.1242 26.7329 41.0267 26.738C40.8532 26.786 40.6582 26.7961 40.5012 26.7847C40.2765 26.7865 40.06 26.7586 39.8518 26.7009C39.308 26.5824 38.8302 26.2259 38.5505 25.732L38.529 25.694C38.3386 25.2249 38.2837 24.7292 38.3857 24.245C38.4187 24.126 38.4896 23.9855 38.6333 23.9292C38.6713 23.9077 38.7093 23.8862 38.777 23.8729C38.653 23.7424 38.5752 23.5607 38.6246 23.3822C38.7184 22.9277 38.9825 22.5524 39.3491 22.2696C39.7372 22.0247 40.1734 21.9533 40.5899 22.0686C41.0444 22.1624 41.433 22.4942 41.6019 22.9254L41.6234 22.9634C41.7328 23.378 41.715 23.7895 41.5699 24.1978C41.5369 24.3168 41.4445 24.4193 41.3305 24.4838L41.8958 24.6404L41.9534 24.4321C42.0276 24.1644 42.0637 23.9181 42.0486 23.6256C42.055 23.3712 41.9854 23.1597 41.9159 22.9483C41.8166 22.7286 41.671 22.5601 41.4875 22.4132C41.2527 22.2201 40.9716 22.0782 40.6659 22.0256C40.3684 21.9432 40.0842 21.9286 39.8297 21.9222C39.567 21.9455 39.296 21.9986 39.0681 22.1277C38.8104 22.2485 38.5958 22.4453 38.4026 22.6801C38.193 22.9744 38.0049 23.3067 37.9358 23.672C37.8122 24.1182 37.7482 24.581 37.7898 25.0089C37.8347 25.3096 37.9391 25.6268 38.1276 25.8712C38.2865 26.1073 38.4915 26.2922 38.7345 26.4556C39.0371 26.6355 39.3263 26.7476 39.6536 26.8382ZM39.4755 25.2835C39.6046 25.5114 39.8179 25.6665 40.0641 25.7027L40.1236 25.7192C40.2426 25.7521 40.3616 25.7851 40.4971 25.7585C40.5946 25.7535 40.7218 25.7567 40.8276 25.7219C40.8953 25.7086 41.001 25.6738 41.077 25.6308L41.3347 25.51L39.4009 24.9745C39.3977 25.1018 39.4407 25.1777 39.4755 25.2835ZM39.8357 23.173L40.6984 23.4119C40.6851 23.3442 40.6934 23.3144 40.6801 23.2467C40.6453 23.141 40.5346 23.0783 40.4156 23.0453C40.3858 23.0371 40.3561 23.0289 40.3263 23.0206C40.1776 22.9794 40.0421 23.006 39.9281 23.0705C39.9116 23.13 39.8737 23.1515 39.8357 23.173Z" fill="#002E47"/>
<path d="M47.6146 23.5335C47.5336 23.479 47.4228 23.4163 47.3418 23.3618C47.2525 23.3371 47.1418 23.2744 47.0525 23.2497C46.9038 23.2085 46.7468 23.1971 46.6195 23.1939C46.4923 23.1907 46.3568 23.2172 46.2131 23.2735C46.1074 23.3083 45.9637 23.3646 45.8795 23.4374C45.8035 23.4804 45.7193 23.5532 45.6351 23.626C45.6547 23.4392 45.5554 23.2195 45.4314 23.0891C45.2478 22.9422 45.0561 22.825 44.8478 22.7673L44.6396 22.7097C44.5801 22.6932 44.5206 22.6767 44.4826 22.6982L44.3256 22.6868L42.7934 28.2203L44.3404 28.6487L45.3618 24.9597C45.4113 24.7812 45.5499 24.6274 45.7316 24.5496C45.9513 24.4502 46.1761 24.4484 46.3843 24.5061C46.5331 24.5473 46.6736 24.6182 46.8059 24.7189C46.9381 24.8196 47.0324 24.9418 47.1267 25.064C47.2654 24.9102 47.4041 24.7564 47.513 24.5944C47.6517 24.4406 47.7391 24.2406 47.7885 24.0621C47.8132 23.9728 47.8082 23.8753 47.7734 23.7696C47.7386 23.6639 47.6956 23.5879 47.6146 23.5335Z" fill="#002E47"/>
<path d="M44.1485 29.108L42.6015 28.6796C42.3338 28.6055 42.1832 28.3395 42.2573 28.0718L43.7978 22.5085C43.8637 22.2705 44.0998 22.1117 44.3461 22.1478L44.5031 22.1593C44.5626 22.1757 44.6601 22.1707 44.7196 22.1872L44.9576 22.2531C45.2551 22.3355 45.5063 22.4691 45.7411 22.6622C45.7924 22.7085 45.8437 22.7547 45.8867 22.8307C45.9544 22.8174 45.9924 22.7959 46.0684 22.7529C46.2419 22.7048 46.4071 22.6865 46.5723 22.6682C46.797 22.6663 46.9838 22.686 47.192 22.7437C47.311 22.7766 47.43 22.8096 47.5408 22.8723C47.6813 22.9432 47.8218 23.0142 47.9541 23.1148C48.0781 23.2453 48.1724 23.3675 48.2205 23.541C48.2983 23.7227 48.3001 23.9474 48.2425 24.1556C48.1683 24.4234 48.0429 24.6449 47.8878 24.8582C47.7788 25.0202 47.6022 25.1955 47.4553 25.3791C47.3628 25.4816 47.2191 25.5379 47.0621 25.5264C46.9051 25.515 46.7646 25.4441 46.6703 25.3219C46.5975 25.2377 46.5248 25.1534 46.452 25.0692C46.4007 25.023 46.3115 24.9983 46.2222 24.9736L46.1925 24.9653C46.1032 24.9406 46.0057 24.9457 45.9 24.9805C45.8323 24.9937 45.8158 25.0532 45.8076 25.083L44.7943 28.7422C44.7202 29.01 44.4163 29.1821 44.1485 29.108ZM43.3791 27.8379L43.9444 27.9944L44.8258 24.8111C44.9164 24.4839 45.1558 24.1978 45.4515 24.0555C45.4217 24.0472 45.392 24.039 45.392 24.039C45.2217 23.9598 45.1141 23.7699 45.1123 23.5451C45.1288 23.4856 45.1073 23.4477 45.056 23.4014C44.9535 23.309 44.813 23.238 44.6939 23.2051L44.6642 23.1969L43.3791 27.8379ZM46.4941 23.9918C46.7023 24.0495 46.9023 24.1369 47.0561 24.2756L47.0644 24.2458C47.1651 24.1136 47.2278 24.0028 47.2607 23.8838C47.2094 23.8376 47.1797 23.8293 47.1202 23.8128C47.0309 23.7881 46.9797 23.7419 46.8904 23.7172C46.8012 23.6925 46.7119 23.6678 46.6144 23.6728C46.517 23.6778 46.4195 23.6829 46.3137 23.7177C46.246 23.7309 46.17 23.774 46.094 23.817C46.0561 23.8385 46.0098 23.8898 45.9718 23.9113C46.1586 23.931 46.3156 23.9424 46.4941 23.9918Z" fill="#002E47"/>
<path d="M52.0184 24.7528C51.9374 24.6983 51.8564 24.6438 51.7754 24.5894C51.6861 24.5646 51.5754 24.5019 51.4861 24.4772C51.3374 24.436 51.1804 24.4246 51.0531 24.4214C50.9259 24.4182 50.7904 24.4448 50.6467 24.5011C50.541 24.5358 50.3973 24.5921 50.3131 24.6649C50.2371 24.7079 50.1529 24.7807 50.0686 24.8535C50.0883 24.6668 50.0187 24.4553 49.865 24.3166C49.7112 24.1779 49.4896 24.0525 49.2814 23.9949L49.0731 23.9372C49.0136 23.9207 48.9541 23.9043 48.9162 23.9258L48.7592 23.9143L47.2269 29.4479L48.774 29.8762L49.7954 26.1872C49.8449 26.0087 49.9835 25.8549 50.1652 25.7771C50.3849 25.6778 50.6097 25.676 50.8179 25.7336C50.9667 25.7748 51.1072 25.8457 51.2394 25.9464C51.3717 26.0471 51.466 26.1693 51.5603 26.2915C51.699 26.1377 51.8377 25.9839 51.9466 25.8219C52.0853 25.6681 52.1727 25.4681 52.2221 25.2896C52.2468 25.2004 52.2418 25.1029 52.207 24.9972C52.1424 24.8832 52.0697 24.799 52.0184 24.7528Z" fill="#002E47"/>
<path d="M48.5821 30.3355L47.0351 29.9071C46.7674 29.833 46.6168 29.5671 46.6909 29.2993L48.2314 23.736C48.2973 23.498 48.5334 23.3392 48.7797 23.3754L48.9367 23.3868C48.9962 23.4033 49.0937 23.3982 49.1532 23.4147L49.3912 23.4806C49.6887 23.563 49.9399 23.6966 50.1747 23.8898C50.226 23.936 50.2773 23.9822 50.3203 24.0582C50.388 24.0449 50.426 24.0234 50.502 23.9804C50.6754 23.9323 50.8407 23.914 51.0059 23.8957C51.2306 23.8939 51.4174 23.9136 51.6256 23.9712C51.7446 24.0042 51.8636 24.0371 51.9744 24.0998C52.1149 24.1708 52.2554 24.2417 52.3579 24.3342C52.4902 24.4348 52.606 24.595 52.6623 24.7387L52.6838 24.7767C52.7616 24.9584 52.7635 25.1832 52.6761 25.3832C52.6019 25.6509 52.4765 25.8725 52.3214 26.0857C52.2124 26.2478 52.0358 26.4231 51.8889 26.6066C51.7964 26.7091 51.6527 26.7654 51.4957 26.754C51.3387 26.7426 51.1982 26.6716 51.1122 26.5197C51.0394 26.4354 50.9666 26.3512 50.8938 26.267C50.8426 26.2208 50.7533 26.1961 50.6641 26.1714C50.5451 26.1384 50.4476 26.1435 50.3418 26.1782C50.3039 26.1998 50.2659 26.2213 50.2494 26.2808L49.2362 29.94C49.124 30.2293 48.8499 30.4096 48.5821 30.3355ZM47.783 29.0572L48.3482 29.2137L49.2297 26.0304C49.3203 25.7032 49.5514 25.4469 49.8553 25.2748C49.8255 25.2665 49.7958 25.2583 49.766 25.2501C49.5958 25.1709 49.4882 24.9809 49.4864 24.7562C49.4946 24.7265 49.4813 24.6587 49.4218 24.6422C49.3193 24.5498 49.1788 24.4789 49.0598 24.4459L49.0301 24.4377L47.7532 29.0489L47.783 29.0572ZM50.9277 25.2194C51.1062 25.2688 51.3062 25.3562 51.46 25.4949C51.46 25.4949 51.46 25.4949 51.4682 25.4651C51.5607 25.3626 51.6316 25.2221 51.6646 25.1031C51.6646 25.1031 51.6645 25.1031 51.6348 25.0949C51.6133 25.0569 51.5538 25.0404 51.4943 25.0239C51.405 24.9992 51.3538 24.953 51.2645 24.9283C51.1753 24.9035 51.086 24.8788 50.9885 24.8839C50.891 24.8889 50.7936 24.8939 50.6878 24.9287C50.6201 24.942 50.5441 24.985 50.4681 25.0281C50.4302 25.0496 50.3839 25.1008 50.3459 25.1223C50.5112 25.104 50.6979 25.1237 50.8764 25.1731C50.9277 25.2194 50.9277 25.2194 50.9277 25.2194Z" fill="#002E47"/>
<path d="M56.4142 30.3903L57.0073 28.2483C57.0897 27.9508 57.1506 27.6153 57.1437 27.2931C57.1501 27.0386 57.0672 26.7594 56.9382 26.5315C56.7793 26.2953 56.5825 26.0807 56.361 25.9553C56.0585 25.7754 55.7097 25.6468 55.3527 25.5479C55.085 25.4738 54.7792 25.4212 54.5032 25.3768C54.257 25.3406 53.9943 25.364 53.7398 25.3576C53.5448 25.3677 53.3714 25.4157 53.1896 25.4935C53.0839 25.5283 52.9617 25.6226 52.9288 25.7416C52.8958 25.8606 52.8926 25.9878 52.9192 26.1233C52.9375 26.2885 52.9855 26.462 53.0716 26.614C53.3508 26.5311 53.6217 26.478 53.9142 26.4629C54.2149 26.418 54.5206 26.4707 54.8181 26.553C55.0941 26.5974 55.3454 26.7311 55.5125 26.9375C55.6498 27.1357 55.6731 27.3984 55.5775 27.6281L55.5198 27.8364L55.2818 27.7705C55.1926 27.7458 55.1033 27.7211 55.0141 27.6964C54.7083 27.6437 54.4026 27.5911 54.0968 27.5385C53.7829 27.5156 53.4309 27.5142 53.122 27.5888C52.8213 27.6337 52.4958 27.7678 52.2514 27.9564C51.969 28.1665 51.7892 28.469 51.7201 28.8343C51.6459 29.102 51.6313 29.3862 51.6547 29.649C51.6862 29.8819 51.7856 30.1016 51.9311 30.27C52.0767 30.4385 52.2305 30.5771 52.4222 30.6943C52.614 30.8115 52.814 30.8989 53.0223 30.9565C53.3495 31.0472 53.723 31.0865 54.0832 31.0581C54.3542 31.005 54.6333 30.9222 54.8613 30.7931C54.8416 30.9798 54.8897 31.1533 55.0055 31.3135C55.151 31.4819 55.3428 31.5991 55.589 31.6352C55.708 31.6682 55.827 31.7011 55.9543 31.7043C56.0815 31.7075 56.2385 31.719 56.374 31.6924C56.2266 31.2993 56.2609 30.8283 56.4142 30.3903ZM55.0059 29.8081C54.9894 29.8676 54.9349 29.9487 54.859 29.9917C54.7747 30.0645 54.669 30.0992 54.5633 30.134C54.4278 30.1606 54.3221 30.1954 54.1949 30.1922C54.0676 30.189 53.9106 30.1775 53.7619 30.1363C53.5156 30.1002 53.3321 29.9533 53.203 29.7253C53.1252 29.5436 53.1234 29.3189 53.1728 29.1404C53.2222 28.9619 53.2932 28.8214 53.4534 28.7056C53.5756 28.6113 53.7275 28.5253 53.8927 28.507C54.0662 28.4589 54.2612 28.4488 54.4397 28.4982C54.6264 28.5179 54.8132 28.5376 55.0214 28.5953L55.1702 28.6365L55.3189 28.6776L55.0059 29.8081Z" fill="#002E47"/>
<path d="M52.9052 31.5005C52.8755 31.4923 52.8457 31.4841 52.816 31.4758C52.578 31.4099 52.3185 31.306 52.1052 31.1509C51.8539 31.0172 51.6489 30.8323 51.49 30.5962C51.3015 30.3518 51.1889 30.0643 51.1142 29.7554C51.0479 29.4167 51.0872 29.0432 51.1778 28.716C51.2717 28.2615 51.5357 27.8862 51.8726 27.5951C52.193 27.3635 52.5266 27.1996 52.8951 27.1415C52.7463 27.1003 52.614 26.9996 52.5577 26.8559C52.4502 26.6659 52.4186 26.433 52.3788 26.2298C52.3605 26.0645 52.3504 25.8696 52.3701 25.6828C52.3783 25.6531 52.3865 25.6233 52.3948 25.5936C52.4987 25.3341 52.6836 25.129 52.933 25.0379C53.1527 24.9386 53.3939 24.8773 53.6186 24.8754C53.8813 24.8521 54.1738 24.837 54.4498 24.8814C54.7638 24.9042 55.0993 24.9651 55.3968 25.0475C55.7835 25.1546 56.162 25.2914 56.5158 25.5175C56.8184 25.6974 57.0962 25.9665 57.2683 26.2704C57.4404 26.5743 57.5365 26.9212 57.5352 27.2732C57.5255 27.6549 57.4944 27.9986 57.3658 28.3474L56.781 30.4596L56.7727 30.4894C56.6441 30.8382 56.6048 31.2116 56.6926 31.5883C56.7192 31.7238 56.678 31.8725 56.6153 31.9833C56.5229 32.0858 56.4007 32.1801 56.2734 32.1769C56.1082 32.1952 55.943 32.2135 55.7562 32.1939C55.5992 32.1824 55.4505 32.1412 55.2935 32.1298C54.958 32.0689 54.6852 31.8973 54.4669 31.6447C54.4669 31.6447 54.4371 31.6364 54.4454 31.6067C54.4239 31.5687 54.3726 31.5225 54.3593 31.4547C54.2536 31.4895 54.1181 31.5161 53.9909 31.5129C53.7035 31.6255 53.292 31.6076 52.9052 31.5005ZM53.6658 28.0596C53.5089 28.0481 53.3734 28.0747 53.1999 28.1228C52.929 28.1759 52.7093 28.2752 52.5111 28.4125C52.3427 28.558 52.2255 28.7498 52.1596 28.9878L52.1514 29.0176C52.0937 29.2258 52.074 29.4126 52.1138 29.6158C52.1404 29.7513 52.1967 29.895 52.291 30.0172C52.3853 30.1394 52.4878 30.2318 52.6283 30.3028C52.7606 30.4035 52.9391 30.4529 53.0878 30.4941C53.2366 30.5353 53.3853 30.5764 53.5423 30.5879C53.2151 30.4973 52.9208 30.2877 52.7569 29.954L52.7354 29.916C52.5931 29.6203 52.5862 29.2981 52.6686 29.0006C52.7427 28.7329 52.8763 28.4816 53.1125 28.3228C53.3107 28.1855 53.4924 28.1076 53.6658 28.0596ZM55.3438 31.0226C55.4166 31.1069 55.5274 31.1696 55.6248 31.1645L55.6546 31.1728L55.7438 31.1975C55.7452 30.8455 55.8061 30.51 55.9264 30.191L56.5113 28.0787C56.5855 27.811 56.6298 27.535 56.6362 27.2805C56.6179 27.1153 56.5996 26.9501 56.4921 26.7601C56.406 26.6082 56.2522 26.4695 56.0902 26.3606C55.8174 26.1889 55.5281 26.0768 55.2306 25.9944C54.9629 25.9203 54.7166 25.8842 54.4407 25.8398C54.2242 25.8118 53.9994 25.8137 53.7665 25.8453C53.6392 25.8421 53.5038 25.8686 53.3898 25.9332C53.3816 25.9629 53.4031 26.0009 53.4031 26.0009C53.5386 25.9743 53.674 25.9478 53.8393 25.9295C54.2077 25.8713 54.5812 25.9107 54.9382 26.0096C55.3034 26.0787 55.6357 26.2668 55.8755 26.5574C55.8971 26.5954 55.9268 26.6036 55.9186 26.6334C56.1122 26.9753 56.1621 27.3734 56.0252 27.752L55.9758 27.9305C55.9264 28.109 55.8042 28.2033 55.6605 28.2596C55.7845 28.39 55.8326 28.5635 55.7831 28.742L55.4619 29.9022L55.4536 29.932C55.4042 30.1105 55.2655 30.2643 55.1136 30.3503L55.1053 30.3801C55.2376 30.4807 55.3154 30.6624 55.2957 30.8492C55.3008 30.9467 55.3223 30.9847 55.3438 31.0226ZM53.6819 29.5054C53.7249 29.5814 53.7844 29.5979 53.8737 29.6226L53.9332 29.6391C54.0224 29.6638 54.1117 29.6885 54.2092 29.6835C54.3067 29.6784 54.3744 29.6652 54.4719 29.6601C54.5099 29.6386 54.5396 29.6468 54.5776 29.6253L54.7341 29.0601C54.6151 29.0271 54.5176 29.0322 54.3986 28.9992C54.2714 28.996 54.1442 28.9928 54.0087 29.0194C53.9409 29.0326 53.8352 29.0674 53.789 29.1187C53.751 29.1402 53.7048 29.1915 53.718 29.2592L53.7098 29.2889C53.6553 29.37 53.6686 29.4377 53.6819 29.5054ZM54.6499 27.0508C54.4119 26.9849 54.1954 26.957 53.9624 26.9886C53.8269 27.0151 53.6997 27.0119 53.5642 27.0385C53.7592 27.0284 53.9542 27.0183 54.1409 27.038C54.4549 27.0609 54.7309 27.1053 55.0284 27.1877C54.9474 27.1332 54.8366 27.0705 54.7176 27.0375C54.7094 27.0673 54.6796 27.059 54.6499 27.0508Z" fill="#002E47"/>
<path d="M7.30821 14.5506L1.96961 10.9263L11.0374 10.1059L15.3383 9.72727L8.02237 20.9945L7.30821 14.5506Z" fill="#002E47"/>
<path d="M1.95962 10.9554L7.07665 12.3723L10.1707 13.229L11.0192 10.1647L1.95962 10.9554Z" fill="#FF9D28"/>
<path d="M11.0187 10.1648L8.0037 21.0534L15.3196 9.78617L11.0187 10.1648Z" fill="#69C3EA"/>
<path d="M10.1721 13.2298L7.07812 12.373L8.00562 21.0541L10.1721 13.2298Z" fill="#004F80"/>
<path d="M1.95947 10.9556L7.28984 14.6096L7.0765 12.3725L1.95947 10.9556Z" fill="#E14748"/>
<path d="M19.4258 21.1094C19.3498 21.1525 19.2441 21.1872 19.1383 21.222C18.9946 21.2783 18.8294 21.2966 18.6642 21.315C18.4312 21.3465 18.2147 21.3186 17.99 21.3205C17.7058 21.3058 17.4 21.2532 17.1405 21.1493C16.605 21.001 16.0942 20.7635 15.6461 20.4152C15.2791 20.1214 14.9664 19.7465 14.7678 19.3072C14.5691 18.8678 14.4762 18.3936 14.489 17.8847C14.4803 17.3377 14.5691 16.7857 14.7174 16.2502C14.8656 15.7147 15.0734 15.1957 15.3622 14.7311C15.6048 14.3178 15.9664 13.9375 16.3627 13.6629C16.7591 13.3882 17.2282 13.1978 17.6941 13.1346C18.2278 13.0582 18.788 13.1172 19.3235 13.2655C19.5913 13.3396 19.8508 13.4435 20.1021 13.5772C20.2938 13.6943 20.4856 13.8115 20.6774 13.9287C20.8097 14.0294 20.9337 14.1598 21.0577 14.2902C21.1305 14.3745 21.2033 14.4587 21.2678 14.5726C21.3108 14.6486 21.3456 14.7543 21.3887 14.8303C21.4234 14.936 21.4285 15.0335 21.374 15.1145C21.3246 15.293 21.2239 15.4253 21.0637 15.5411C20.9035 15.6569 20.7433 15.7727 20.5914 15.8588C20.5268 15.7448 20.4326 15.6226 20.368 15.5086C20.2737 15.3864 20.1794 15.2642 20.0472 15.1635C19.9231 15.0331 19.7611 14.9242 19.6206 14.8532C19.4288 14.7361 19.2586 14.6569 19.0421 14.629C18.3958 14.418 17.7102 14.5805 17.2346 15.0254C17.0118 15.2519 16.8186 15.4868 16.6685 15.7975C16.5184 16.1083 16.398 16.4273 16.3074 16.7546C16.2168 17.0818 16.1477 17.4471 16.1166 17.7908C16.0937 18.1048 16.1303 18.4352 16.2347 18.7524C16.3473 19.0398 16.4979 19.3057 16.7244 19.5286C17.1643 19.9067 17.6833 20.1145 18.26 20.114C18.4252 20.0957 18.6202 20.0856 18.7854 20.0673C18.9209 20.0407 19.0646 19.9844 19.2083 19.9281C19.3223 19.8636 19.428 19.8288 19.5337 19.794L19.6248 20.0435C19.6679 20.1194 19.7026 20.2252 19.7374 20.3309C19.7722 20.4366 19.7773 20.5341 19.7905 20.6018C19.8038 20.6696 19.8088 20.7671 19.7841 20.8563C19.7594 20.9456 19.705 21.0266 19.6587 21.0778C19.6075 21.0316 19.5315 21.0746 19.4258 21.1094Z" fill="white"/>
<path d="M25.4953 21.8606C25.342 22.2987 25.3077 22.7696 25.4006 23.2438C25.2651 23.2703 25.1379 23.2671 24.9809 23.2557C24.8537 23.2525 24.7347 23.2195 24.6157 23.1866C24.4074 23.1289 24.1776 23.0333 24.0321 22.8648C23.9163 22.7047 23.8682 22.5312 23.8879 22.3445C23.66 22.4735 23.3808 22.5564 23.1098 22.6095C22.7496 22.6379 22.4059 22.6068 22.0489 22.5079C21.8407 22.4502 21.6406 22.3628 21.4489 22.2457C21.2571 22.1285 21.1033 21.9898 20.9875 21.8296C20.8502 21.6314 20.7509 21.4118 20.711 21.2085C20.6579 20.9376 20.6726 20.6534 20.7765 20.3938C20.8671 20.0666 21.047 19.7641 21.3078 19.516C21.5522 19.3274 21.8479 19.1851 22.1486 19.1402C22.4575 19.0656 22.8095 19.067 23.1235 19.0898C23.4375 19.1127 23.7432 19.1653 24.0407 19.2477L24.3085 19.3218L24.5465 19.3878L24.6041 19.1795C24.6998 18.9497 24.6682 18.7168 24.5391 18.4888C24.3423 18.2742 24.1208 18.1488 23.8448 18.1044C23.5473 18.022 23.2333 17.9991 22.9408 18.0143C22.6401 18.0591 22.3692 18.1122 22.0982 18.1653C22.0122 18.0134 21.9641 17.8399 21.9458 17.6747C21.9193 17.5392 21.9225 17.412 21.9554 17.293C21.9884 17.174 22.1106 17.0797 22.2163 17.0449C22.398 16.9671 22.5715 16.919 22.7664 16.9089C23.0291 16.8856 23.2836 16.892 23.5299 16.9281C23.8141 16.9428 24.1198 16.9954 24.3793 17.0993C24.7363 17.1981 25.0851 17.3268 25.3876 17.5066C25.6389 17.6403 25.8357 17.8549 25.9648 18.0828C26.0939 18.3108 26.1767 18.59 26.1703 18.8444C26.1772 19.1666 26.1246 19.4724 26.034 19.7996L25.4953 21.8606ZM24.4 20.148L24.2513 20.1068C24.1918 20.0903 24.1323 20.0738 24.1025 20.0656C23.924 20.0162 23.7075 19.9883 23.5208 19.9686C23.334 19.9489 23.1688 19.9672 22.9738 19.9773C22.8086 19.9956 22.6567 20.0817 22.5345 20.1759C22.404 20.3 22.2951 20.462 22.2457 20.6405C22.188 20.8488 22.1981 21.0437 22.2759 21.2254C22.3752 21.4451 22.5967 21.5705 22.8347 21.6364C22.9835 21.6776 23.1107 21.6808 23.2677 21.6923C23.395 21.6955 23.5304 21.6689 23.6362 21.6341C23.7419 21.5993 23.8476 21.5646 23.9318 21.4918C24.0078 21.4488 24.054 21.3975 24.0787 21.3082L24.4 20.148Z" fill="white"/>
<path d="M29.3018 19.1033C29.4999 18.966 29.7494 18.8749 29.9906 18.8136C30.3293 18.7472 30.6812 18.7486 31.03 18.8772C31.2978 18.9513 31.549 19.085 31.7921 19.2484C32.0351 19.4118 32.1939 19.6479 32.3528 19.8841C32.4951 20.1798 32.5912 20.5267 32.5981 20.8489C32.6018 21.2984 32.5377 21.7611 32.4224 22.1776C32.2823 22.6833 32.091 23.1429 31.8105 23.5777C31.6009 23.872 31.34 24.1201 31.0279 24.3219C30.7619 24.4725 30.4745 24.5851 30.182 24.6002C29.8896 24.6153 29.6136 24.5709 29.3376 24.5265C29.1591 24.4771 28.9591 24.3897 28.7888 24.3105C28.6483 24.2396 28.516 24.1389 28.4217 24.0167C28.349 23.9325 28.2762 23.8483 28.2034 23.764C28.1819 23.7261 28.1389 23.6501 28.1174 23.6121L27.343 26.4086L25.796 25.9802L27.9543 18.1857L28.1113 18.1971C28.1708 18.2136 28.2385 18.2003 28.2683 18.2086L28.4765 18.2662C28.6848 18.3239 28.9145 18.4196 29.0981 18.5665C29.2139 18.7267 29.2917 18.9084 29.3018 19.1033ZM30.7481 21.746C30.8058 21.5378 30.8337 21.3213 30.8616 21.1048C30.8813 20.9181 30.8712 20.7231 30.8232 20.5496C30.7751 20.3761 30.6891 20.2242 30.5568 20.1235C30.403 19.9848 30.2327 19.9057 30.0542 19.8562C29.8245 19.7606 29.57 19.7542 29.3503 19.8535C29.2066 19.9098 29.1059 20.0421 29.0647 20.1908L28.3975 22.6006C28.462 22.7146 28.5645 22.807 28.667 22.8995C28.8208 23.0381 28.9911 23.1173 29.1696 23.1667C29.5184 23.2953 29.895 23.2075 30.1262 22.9511C30.4415 22.6221 30.6543 22.2005 30.7481 21.746Z" fill="white"/>
<path d="M33.0005 24.4835C32.9822 24.3183 33.0019 24.1316 33.0431 23.9828C33.0925 23.8043 33.1039 23.6473 33.1534 23.4688L34.6115 18.2031L34.7982 18.2227C34.8577 18.2392 34.9254 18.2259 34.9849 18.2424L35.1634 18.2918C35.2824 18.3248 35.4014 18.3577 35.5122 18.4204C35.623 18.4831 35.7337 18.5458 35.7983 18.6598C35.871 18.744 35.9273 18.8877 35.9621 18.9935C35.9804 19.1587 35.969 19.3157 35.9278 19.4644L35.7054 20.2677L37.2821 20.7043L36.9691 21.8348L35.3924 21.3982L34.7251 23.8079C34.5768 24.3435 34.7109 24.6689 35.1572 24.7924C35.2464 24.8171 35.3737 24.8203 35.4712 24.8153C35.5686 24.8103 35.6661 24.8052 35.7719 24.7704C35.8396 24.7572 35.9453 24.7224 36.0131 24.7091C36.0511 24.6876 36.1188 24.6743 36.1568 24.6528C36.2048 24.8263 36.2611 24.97 36.301 25.1732C36.3275 25.3087 36.3326 25.4062 36.2914 25.5549C36.2584 25.6739 36.2039 25.7549 36.09 25.8195C35.9678 25.9138 35.8241 25.9701 35.6886 25.9966C35.4854 26.0364 35.3202 26.0547 35.0954 26.0566C34.8707 26.0584 34.6245 26.0223 34.4244 25.9349C34.0295 25.8575 33.6674 25.6612 33.3978 25.3623C33.1498 25.1014 33.0372 24.814 33.0005 24.4835Z" fill="white"/>
<path d="M39.9738 26.2545C40.1523 26.3039 40.3093 26.3154 40.496 26.3351C40.6232 26.3383 40.7885 26.3199 40.9239 26.2934C41.0594 26.2669 41.1651 26.2321 41.2791 26.1675L41.5748 26.0252C41.6526 26.2069 41.7006 26.3803 41.7487 26.5538C41.805 26.6975 41.8233 26.8627 41.7739 27.0412C41.6947 27.2115 41.556 27.3653 41.3528 27.4051C41.1034 27.4962 40.8407 27.5196 40.5862 27.5132C40.2342 27.5118 39.8607 27.4724 39.5417 27.3521C39.1847 27.2532 38.8442 27.0949 38.5417 26.915C38.2391 26.7351 37.9531 26.4958 37.7512 26.1836C37.5196 25.8633 37.3937 25.5081 37.3438 25.1099C37.2889 24.6142 37.3397 24.0837 37.5095 23.5862C37.6248 23.1697 37.7996 22.7697 38.0852 22.4324C38.2949 22.1381 38.5855 21.8982 38.9191 21.7344C39.2148 21.592 39.5617 21.4959 39.8922 21.4593C40.2144 21.4524 40.5581 21.4835 40.8854 21.5741C41.2424 21.673 41.6127 21.8396 41.8987 22.0789C42.1335 22.2721 42.3518 22.5247 42.4644 22.8122C42.577 23.0996 42.6599 23.3788 42.6668 23.701C42.6736 24.0232 42.621 24.3289 42.5386 24.6264L42.4974 24.7752L42.4398 24.9834C42.4398 24.9834 42.3986 25.1322 42.3821 25.1917C42.3656 25.2512 42.3574 25.281 42.3112 25.3322L38.9494 24.4013C38.8721 24.7963 38.8922 25.1863 39.0478 25.5497C39.1737 25.9049 39.549 26.1689 39.9738 26.2545ZM41.1138 24.1038C41.1962 23.8063 41.2273 23.4626 41.1527 23.1536C41.0401 22.8662 40.7838 22.6351 40.4698 22.6122C40.1723 22.5298 39.8716 22.5747 39.6354 22.7335C39.3531 22.9436 39.1814 23.2164 39.1206 23.5519L41.1138 24.1038Z" fill="white"/>
<path d="M45.6272 23.6557C45.7115 23.583 45.7874 23.5399 45.8716 23.4672C45.9856 23.4026 46.0996 23.3381 46.2053 23.3033C46.3408 23.2768 46.4762 23.2502 46.6117 23.2237C46.7769 23.2053 46.896 23.2383 47.0447 23.2795C47.134 23.3042 47.253 23.3371 47.334 23.3916C47.4232 23.4163 47.534 23.479 47.6068 23.5632C47.6878 23.6177 47.7308 23.6937 47.7656 23.7994C47.8004 23.9051 47.8054 24.0026 47.7807 24.0919C47.723 24.3001 47.6141 24.4621 47.5052 24.6242C47.3962 24.7862 47.2576 24.94 47.1189 25.0938C47.0246 24.9716 46.9303 24.8494 46.798 24.7487C46.6658 24.648 46.5253 24.5771 46.3765 24.5359C46.1683 24.4782 45.9435 24.48 45.7238 24.5794C45.5421 24.6572 45.4035 24.811 45.354 24.9895L44.3326 28.6785L42.7855 28.2501L44.3178 22.7166L44.4747 22.728C44.5343 22.7445 44.602 22.7312 44.6317 22.7395L44.84 22.7971C45.0482 22.8548 45.278 22.9504 45.4236 23.1189C45.5691 23.2873 45.6469 23.469 45.6272 23.6557Z" fill="white"/>
<path d="M49.9988 24.8661C50.083 24.7934 50.159 24.7503 50.2432 24.6776C50.3572 24.613 50.4629 24.5782 50.5768 24.5137C50.7123 24.4871 50.8478 24.4606 50.9833 24.434C51.1485 24.4157 51.2675 24.4487 51.4163 24.4899C51.5055 24.5146 51.6245 24.5475 51.7055 24.602C51.7948 24.6267 51.8758 24.6812 51.9486 24.7654C52.0296 24.8198 52.0726 24.8958 52.1074 25.0016C52.1422 25.1073 52.1472 25.2048 52.1225 25.294C52.0648 25.5023 51.9559 25.6643 51.847 25.8263C51.738 25.9883 51.5994 26.1421 51.4607 26.2959C51.3664 26.1737 51.2721 26.0515 51.1398 25.9508C51.0076 25.8501 50.8671 25.7792 50.7183 25.738C50.51 25.6803 50.2853 25.6822 50.0656 25.7815C49.8839 25.8593 49.7453 26.0131 49.6958 26.1916L48.6743 29.8806L47.1273 29.4523L48.6596 23.9187L48.8165 23.9302C48.876 23.9466 48.9438 23.9334 48.9735 23.9416L49.1818 23.9993C49.39 24.0569 49.6198 24.1526 49.7654 24.321C49.9489 24.4679 50.0185 24.6794 49.9988 24.8661Z" fill="white"/>
<path d="M56.4059 30.4201C56.2526 30.8582 56.2183 31.3291 56.3112 31.8033C56.1757 31.8298 56.0485 31.8266 55.8915 31.8152C55.7643 31.812 55.6453 31.7791 55.5263 31.7461C55.318 31.6884 55.0883 31.5928 54.9427 31.4244C54.8269 31.2642 54.7788 31.0907 54.7985 30.904C54.5706 31.033 54.2914 31.1159 54.0204 31.169C53.6602 31.1974 53.3165 31.1663 52.9595 31.0674C52.7513 31.0097 52.5513 30.9223 52.3595 30.8052C52.1677 30.688 52.0139 30.5493 51.8684 30.3809C51.7228 30.2125 51.6235 29.9928 51.5919 29.7598C51.5388 29.4889 51.5534 29.2046 51.6573 28.9451C51.7182 28.6096 51.9278 28.3153 52.1887 28.0673C52.4331 27.8787 52.7288 27.7363 53.0295 27.6915C53.3384 27.6169 53.6904 27.6182 54.0043 27.6411C54.3183 27.664 54.6241 27.7166 54.9216 27.799L55.1893 27.8731L55.4571 27.9473L55.5147 27.739C55.6104 27.5092 55.5788 27.2763 55.4497 27.0484C55.2529 26.8337 55.0314 26.7083 54.7554 26.6639C54.4579 26.5815 54.1439 26.5587 53.8514 26.5738C53.5507 26.6186 53.2798 26.6717 53.0088 26.7248C52.9228 26.5729 52.8747 26.3994 52.8564 26.2342C52.8299 26.0987 52.8331 25.9715 52.866 25.8525C52.899 25.7335 53.0212 25.6392 53.1269 25.6044C53.3086 25.5266 53.4821 25.4785 53.677 25.4684C53.9398 25.4451 54.1942 25.4515 54.4405 25.4876C54.7247 25.5023 55.0304 25.5549 55.29 25.6588C55.647 25.7577 55.9957 25.8863 56.2983 26.0661C56.5495 26.1998 56.7463 26.4144 56.8754 26.6423C57.0045 26.8703 57.0873 27.1495 57.0809 27.4039C57.0878 27.7262 57.0352 28.0319 56.9446 28.3591L56.4059 30.4201ZM55.3106 28.7075L55.1619 28.6663C55.1024 28.6498 55.0429 28.6333 55.0131 28.6251C54.8346 28.5757 54.6181 28.5478 54.4314 28.5281C54.2447 28.5084 54.0794 28.5267 53.8845 28.5368C53.7192 28.5551 53.5673 28.6412 53.4451 28.7355C53.3146 28.8595 53.2139 28.9918 53.1645 29.1703C53.1069 29.3785 53.1169 29.5735 53.1947 29.7552C53.2941 29.9749 53.5156 30.1003 53.7536 30.1662C53.9023 30.2074 54.0296 30.2106 54.1866 30.222C54.3138 30.2252 54.4493 30.1987 54.555 30.1639C54.6607 30.1291 54.7665 30.0943 54.8507 30.0215C54.9267 29.9785 54.9729 29.9272 54.9976 29.838L55.3106 28.7075Z" fill="white"/>
<path d="M22.6655 32.1922C22.5763 32.1674 22.4655 32.1047 22.3845 32.0503L21.5428 31.2727C21.4915 31.2265 21.4618 31.2182 21.4023 31.2017C21.3428 31.1853 21.2833 31.1688 21.2453 31.1903L20.1235 31.4242C20.0178 31.459 19.8905 31.4558 19.8095 31.4013C19.631 31.3519 19.4772 31.2132 19.3912 31.0613C19.3134 30.8796 19.3033 30.6846 19.3825 30.5143L19.8658 29.463C19.9285 29.3522 19.8937 29.2465 19.8589 29.1408L19.2698 28.1449C19.1407 27.9169 19.1471 27.6625 19.3023 27.4492C19.4277 27.2277 19.6771 27.1366 19.9316 27.143L21.0818 27.2693C21.209 27.2725 21.3148 27.2377 21.399 27.1649L22.1468 26.3149C22.3862 26.0289 22.8059 26.017 23.092 26.2563C23.1945 26.3488 23.2805 26.5007 23.3071 26.6362L23.541 27.758C23.5758 27.8637 23.6403 27.9777 23.7593 28.0107L24.8189 28.4642C25.0486 28.5599 25.2075 28.796 25.2011 29.0505C25.1947 29.305 25.0693 29.5265 24.8413 29.6556L23.7859 30.2282C23.672 30.2927 23.6175 30.3737 23.6143 30.501L23.488 31.6511C23.4683 31.8379 23.3809 32.0379 23.2207 32.1537C23.039 32.2315 22.8358 32.2713 22.6655 32.1922Z" fill="#FF9D28"/>
<path d="M22.7693 26.2629C22.9478 26.3123 23.0934 26.4807 23.1414 26.6542L23.3456 27.7677C23.3639 27.933 23.488 28.0634 23.6285 28.1343L24.688 28.5879C24.9475 28.6918 25.0519 29.009 24.948 29.2685C24.8853 29.3792 24.8309 29.4602 24.7251 29.495L23.7077 30.0461C23.5557 30.1322 23.4551 30.2644 23.4354 30.4512L23.3173 31.5716C23.2729 31.8476 23.0285 32.0362 22.7443 32.0215C22.655 31.9968 22.536 31.9639 22.4633 31.8797L21.6216 31.1021C21.4975 30.9716 21.319 30.9222 21.1753 30.9785L20.1048 31.2586C19.8338 31.3117 19.561 31.1401 19.5162 30.8394C19.4814 30.7337 19.5061 30.6444 19.5308 30.5552L20.0059 29.5336C20.0768 29.3931 20.0667 29.1981 19.9807 29.0461L19.3916 28.0502C19.2328 27.8141 19.3234 27.4868 19.5811 27.366C19.695 27.3014 19.7925 27.2964 19.89 27.2914L21.032 27.4474C21.189 27.4588 21.3624 27.4108 21.4631 27.2785L22.211 26.4286C22.3794 26.283 22.5908 26.2134 22.7693 26.2629ZM22.8517 25.9654C22.5542 25.883 22.2073 25.9791 22.0141 26.2139L21.2663 27.0639C21.2201 27.1151 21.1523 27.1284 21.0928 27.1119L19.9509 26.9559C19.6451 26.9032 19.3495 27.0456 19.1778 27.3184C19.0062 27.5912 18.9833 27.9051 19.1637 28.1793L19.7528 29.1752C19.804 29.2214 19.7793 29.3107 19.7628 29.3702L19.2498 30.4133C19.1541 30.6431 19.1477 30.8975 19.2471 31.1172C19.3464 31.3369 19.5217 31.5136 19.7597 31.5795C19.8787 31.6124 20.0357 31.6239 20.1414 31.5891L21.2714 31.3254C21.3392 31.3121 21.3987 31.3286 21.4499 31.3748L22.2916 32.1524C22.3942 32.2449 22.5049 32.3076 22.6239 32.3405C22.8619 32.4065 23.1031 32.3451 23.3013 32.2078C23.4995 32.0705 23.6249 31.849 23.661 31.6027L23.7791 30.4823C23.7956 30.4228 23.8121 30.3633 23.888 30.3203L24.8675 29.7907C25.1334 29.6401 25.3133 29.3376 25.2981 29.0451C25.2913 28.7229 25.1109 28.4487 24.8217 28.3366L23.7621 27.8831C23.7026 27.8666 23.6596 27.7906 23.6381 27.7526L23.4339 26.6391C23.3675 26.3004 23.1492 26.0477 22.8517 25.9654Z" fill="#FF9D28"/>
<path d="M56.9215 41.7417C56.8917 41.7335 56.8702 41.6955 56.8785 41.6657L61.5245 24.8866C61.5328 24.8569 61.5708 24.8354 61.6005 24.8436C61.6303 24.8519 61.6518 24.8898 61.6435 24.9196L56.9975 41.6987C56.9892 41.7285 56.9512 41.75 56.9215 41.7417Z" fill="#68C5ED"/>
<path d="M67.8105 38.1579L66.9477 37.919L66.5276 39.4363L64.4451 38.8596L64.8652 37.3424L61.7415 36.4774L62.1698 34.9304L66.7686 31.0468L68.7321 31.5905L67.4141 36.3505L68.2768 36.5894L67.8402 38.1661L67.8105 38.1579ZM65.2721 35.7574L65.5274 34.8351C65.5769 34.6566 65.6428 34.4186 65.7467 34.1591C65.829 33.8616 65.9 33.7211 65.9 33.7211L65.8405 33.7046C65.6473 33.9394 65.4244 34.166 65.2098 34.3628L63.9928 35.4032L65.2721 35.7574Z" fill="#68C5ED"/>
<path d="M68.2625 38.9558C68.3531 38.6286 68.5165 38.3855 68.7741 38.2647C69.0318 38.1438 69.3243 38.1287 69.711 38.2358C70.068 38.3347 70.3111 38.4981 70.4402 38.726C70.5692 38.9539 70.6141 39.2546 70.5235 39.5819C70.4329 39.9091 70.2777 40.1224 70.02 40.2433C69.7624 40.3641 69.4699 40.3792 69.1426 40.2886C68.7856 40.1897 68.5426 40.0263 68.3838 39.7902C68.187 39.5755 68.1718 39.2831 68.2625 38.9558Z" fill="#68C5ED"/>
<path d="M76.1714 33.5222C77.0044 33.7529 77.5797 34.1044 77.9651 34.5634C78.3208 35.0142 78.427 35.5561 78.254 36.1809C78.1387 36.5974 77.9208 36.9214 77.6219 37.191C77.3231 37.4606 76.8919 37.6295 76.35 37.7357C76.8544 38.2277 77.1505 38.6621 77.2979 39.0552C77.4453 39.4484 77.4655 39.8383 77.3584 40.2251C77.1689 40.9093 76.7744 41.4087 76.1615 41.6554C75.5487 41.9021 74.7853 41.8829 73.8928 41.6358C72.9705 41.3804 72.3059 41.0042 71.937 40.4856C71.5681 39.9671 71.4486 39.3574 71.6381 38.6732C71.7617 38.2269 71.9878 37.8731 72.2866 37.6035C72.5855 37.334 73.0546 37.1435 73.6263 37.0456C73.2839 36.6625 73.0688 36.2826 72.9511 35.8977C72.8633 35.521 72.8431 35.1311 72.942 34.7741C73.1067 34.1791 73.4765 33.769 74.0431 33.5735C74.6642 33.2971 75.3682 33.2998 76.1714 33.5222ZM73.6346 39.0979C73.5769 39.3061 73.6167 39.5093 73.7243 39.6993C73.8318 39.8892 74.0534 40.0146 74.3211 40.0888C74.9459 40.2617 75.339 40.1144 75.4626 39.6681C75.512 39.4896 75.5019 39.2946 75.3944 39.1047C75.2951 38.885 75.1065 38.6406 74.8071 38.3335C74.4305 38.4214 74.181 38.5125 73.9829 38.6498C73.8012 38.7276 73.6922 38.8896 73.6346 39.0979ZM75.743 35.0692C75.5645 35.0198 75.3993 35.0381 75.2259 35.0862C75.0739 35.1722 74.9815 35.2747 74.932 35.4532C74.8497 35.7507 74.9755 36.1059 75.3344 36.4295C75.6433 36.3549 75.825 36.2771 75.9852 36.1613C76.1074 36.067 76.2081 35.9347 76.2493 35.7859C76.2987 35.6074 76.2722 35.472 76.1861 35.32C76.0538 35.2193 75.9216 35.1186 75.743 35.0692Z" fill="#68C5ED"/>
<path d="M30.3576 28.3643C30.5361 28.4138 30.6817 28.5822 30.7297 28.7557L30.9339 29.8692C30.9522 30.0344 31.0762 30.1649 31.2167 30.2358L32.2763 30.6894C32.5358 30.7933 32.6402 31.1104 32.5363 31.3699C32.4736 31.4807 32.4191 31.5617 32.3134 31.5965L31.296 32.1476C31.144 32.2336 31.0433 32.3659 31.0236 32.5527L30.9056 33.6731C30.8909 33.9573 30.6383 34.1756 30.3623 34.1313C30.3326 34.123 30.3028 34.1148 30.2731 34.1065C30.1838 34.0818 30.1326 34.0356 30.0515 33.9811L29.2098 33.2035C29.0858 33.0731 28.9073 33.0237 28.7636 33.08L27.6418 33.3139C27.3708 33.367 27.098 33.1954 27.0449 32.9244C27.0102 32.8187 27.0431 32.6997 27.0761 32.5807L27.5511 31.5591C27.6221 31.4186 27.612 31.2236 27.5259 31.0717L26.9584 30.1137C26.7995 29.8776 26.8902 29.5503 27.1478 29.4295C27.2618 29.3649 27.3593 29.3599 27.4568 29.3548L28.5987 29.5109C28.7557 29.5223 28.9292 29.4743 29.0299 29.342L29.7777 28.492C29.9676 28.3845 30.1791 28.3149 30.3576 28.3643ZM30.44 28.0668C30.1425 27.9845 29.8253 28.0888 29.6024 28.3154L28.8546 29.1653C28.8083 29.2166 28.7406 29.2299 28.6811 29.2134L27.5392 29.0573C27.1062 29.0015 26.7016 29.3059 26.6375 29.7686C26.6178 29.9554 26.6659 30.1288 26.752 30.2808L27.341 31.2767C27.3923 31.3229 27.3676 31.4122 27.3511 31.4717L26.876 32.4933C26.7804 32.723 26.774 32.9775 26.8733 33.1972C26.9726 33.4169 27.1479 33.5935 27.3859 33.6594C27.5049 33.6924 27.6619 33.7038 27.7677 33.669L28.8894 33.4351C28.9192 33.4434 28.9572 33.4219 28.9869 33.4301C29.0167 33.4383 29.0464 33.4466 29.068 33.4846L29.9097 34.2622C30.0122 34.3546 30.123 34.4173 30.242 34.4503C30.48 34.5162 30.7212 34.4548 30.9193 34.3175C31.1175 34.1802 31.2429 33.9587 31.2791 33.7124L31.3971 32.592C31.4136 32.5325 31.4301 32.473 31.506 32.43L32.5235 31.8789C32.9034 31.6638 33.0732 31.1663 32.858 30.7864C32.772 30.6344 32.6182 30.4958 32.4777 30.4248L31.4181 29.9713C31.3586 29.9548 31.3156 29.8788 31.2941 29.8408L31.0899 28.7273C30.9558 28.4018 30.7375 28.1492 30.44 28.0668Z" fill="#FF9D28"/>
<path d="M32.4335 30.7008L31.3144 30.2308C31.1739 30.1598 31.0201 30.0211 31.0101 29.8262L30.7926 28.6449C30.7478 28.3442 30.4535 28.1345 30.1825 28.1876C30.047 28.2142 29.9628 28.287 29.8406 28.3813L29.0465 29.2825C28.9459 29.4147 28.7642 29.4926 28.5774 29.4729L27.376 29.3004C27.0702 29.2477 26.8093 29.4958 26.765 29.7718C26.7618 29.899 26.7668 29.9965 26.8313 30.1105L27.4634 31.1824C27.5495 31.3343 27.5596 31.5293 27.4804 31.6996L26.9888 32.7807C26.847 33.0617 26.9596 33.3491 27.2406 33.491C27.3514 33.5537 27.5083 33.5651 27.6141 33.5303L28.8036 33.2832C28.9771 33.2351 29.1853 33.2928 29.2796 33.415L30.1726 34.2388C30.4074 34.4319 30.7296 34.4251 30.9145 34.22C30.9987 34.1472 31.0317 34.0282 31.0646 33.9092L31.1992 32.7293C31.2106 32.5723 31.3278 32.3805 31.4797 32.2945L32.5731 31.7004C32.8093 31.5415 32.8999 31.2143 32.7791 30.9566C32.6253 30.8179 32.5145 30.7552 32.4335 30.7008Z" fill="#FF9D28"/>
<path d="M39.5726 32.6776L38.4833 32.2158C38.3428 32.1449 38.2188 32.0144 38.2005 31.8492L38.0045 30.7059C37.9514 30.4349 37.6869 30.2336 37.4159 30.2867C37.2805 30.3132 37.1962 30.386 37.112 30.4588L36.3559 31.3385C36.2553 31.4707 36.0818 31.5188 35.9248 31.5074L34.7531 31.3431C34.4771 31.2987 34.2245 31.517 34.1801 31.793C34.1769 31.9202 34.1819 32.0177 34.2547 32.1019L34.8438 33.0979C34.9298 33.2498 34.9481 33.415 34.869 33.5853L34.3857 34.6366C34.252 34.8879 34.3646 35.1753 34.6159 35.309C34.7267 35.3717 34.8539 35.3749 34.9596 35.3401L36.1112 35.1144C36.2846 35.0664 36.4631 35.1158 36.5574 35.238L37.4289 36.0238C37.6339 36.2087 37.9562 36.2019 38.1411 35.9968C38.2253 35.924 38.2582 35.805 38.2829 35.7158L38.4092 34.5656C38.4207 34.4086 38.5296 34.2466 38.6815 34.1605L39.6692 33.6012C39.9054 33.4424 39.9878 33.1449 39.8587 32.917C39.7942 32.803 39.6834 32.7403 39.5726 32.6776Z" fill="#FF9D28"/>
<path d="M47.1966 34.7568L46.1073 34.295C45.9668 34.2241 45.8427 34.0937 45.8244 33.9284L45.5988 32.7769C45.5457 32.5059 45.2514 32.2963 44.9804 32.3494C44.8449 32.376 44.7607 32.4487 44.6765 32.5215L43.8907 33.393C43.79 33.5253 43.6165 33.5733 43.4595 33.5619L42.2878 33.3976C42.0118 33.3532 41.7295 33.5633 41.6768 33.869C41.6736 33.9963 41.6787 34.0938 41.7514 34.178L42.3323 35.2036C42.4183 35.3556 42.4366 35.5208 42.3492 35.7208L41.8659 36.7722C41.7323 37.0234 41.8366 37.3406 42.0879 37.4743C42.1987 37.537 42.3259 37.5402 42.4317 37.5054L43.5914 37.25C43.7649 37.2019 43.9434 37.2513 44.0674 37.3818L44.9307 38.1973C45.1357 38.3822 45.4877 38.3836 45.6726 38.1786C45.7568 38.1058 45.7897 37.9868 45.8227 37.8678L45.949 36.7176C45.9604 36.5606 46.0694 36.3986 46.2296 36.2828L47.2552 35.702C47.4914 35.5431 47.582 35.2159 47.4529 34.9879C47.3586 34.8657 47.2776 34.8113 47.1966 34.7568Z" fill="#FF9D28"/>
<path d="M37.6457 30.3824C37.8242 30.4318 37.9697 30.6003 38.0178 30.7737L38.222 31.8873C38.2403 32.0525 38.3643 32.1829 38.5048 32.2539L39.5644 32.7074C39.8239 32.8113 39.9283 33.1285 39.8244 33.388C39.7617 33.4988 39.7072 33.5798 39.6015 33.6146L38.6138 34.1739C38.4618 34.2599 38.3612 34.3922 38.3415 34.579L38.2234 35.6994C38.179 35.9754 37.9346 36.164 37.6504 36.1493C37.5529 36.1544 37.4422 36.0917 37.3694 36.0074L36.5277 35.2298C36.4036 35.0994 36.2251 35.05 36.0814 35.1063L34.9596 35.3402C34.6887 35.3933 34.4241 35.1919 34.371 34.921C34.366 34.8235 34.3609 34.726 34.4154 34.645L34.8905 33.6234C34.9614 33.4829 34.9513 33.2879 34.8653 33.1359L34.2762 32.14C34.1174 31.9039 34.208 31.5766 34.4657 31.4558C34.5796 31.3912 34.6771 31.3862 34.7746 31.3812L35.9166 31.5372C36.0735 31.5486 36.247 31.5006 36.3477 31.3683L37.0955 30.5183C37.2557 30.4025 37.4672 30.333 37.6457 30.3824ZM37.7281 30.0849C37.4306 30.0025 37.0836 30.0986 36.8905 30.3334L36.1426 31.1834C36.0964 31.2347 36.0287 31.2479 35.9692 31.2315L34.8272 31.0754C34.3943 31.0196 33.9897 31.324 33.9256 31.7867C33.9059 31.9734 33.954 32.1469 34.04 32.2988L34.6291 33.2948C34.6804 33.341 34.6557 33.4302 34.6392 33.4897L34.1641 34.5113C34.0685 34.7411 34.0621 34.9956 34.1614 35.2153C34.2607 35.4349 34.436 35.6116 34.674 35.6775C34.793 35.7105 34.95 35.7219 35.0557 35.6871L36.1775 35.4532C36.2073 35.4614 36.2453 35.4399 36.275 35.4482C36.3048 35.4564 36.3345 35.4646 36.356 35.5026L37.1978 36.2802C37.3003 36.3727 37.411 36.4354 37.53 36.4683C37.768 36.5342 38.0092 36.4729 38.2074 36.3356C38.4056 36.1983 38.531 35.9767 38.5671 35.7305L38.6852 34.6101C38.7017 34.5506 38.7182 34.4911 38.7941 34.4481L39.7736 33.9185C40.1535 33.7034 40.3233 33.2058 40.1081 32.826C40.0221 32.674 39.898 32.5436 39.7278 32.4644L38.6682 32.0108C38.6087 31.9944 38.5657 31.9184 38.5442 31.8804L38.34 30.7668C38.2439 30.4199 38.0256 30.1673 37.7281 30.0849Z" fill="#FF9D28"/>
<path d="M37.6457 30.3824C37.8242 30.4318 37.9697 30.6003 38.0178 30.7737L38.222 31.8873C38.2403 32.0525 38.3643 32.1829 38.5048 32.2539L39.5644 32.7074C39.8239 32.8113 39.9283 33.1285 39.8244 33.388C39.7617 33.4988 39.7072 33.5798 39.6015 33.6146L38.6138 34.1739C38.4618 34.2599 38.3612 34.3922 38.3415 34.579L38.2234 35.6994C38.2088 35.9836 37.9644 36.1722 37.6802 36.1576C37.6504 36.1493 37.6207 36.1411 37.5909 36.1328C37.5017 36.1081 37.4504 36.0619 37.3694 36.0074L36.5277 35.2298C36.4036 35.0994 36.2251 35.05 36.0814 35.1063L34.9596 35.3402C34.6887 35.3933 34.4159 35.2217 34.3628 34.9507C34.328 34.845 34.3609 34.726 34.3939 34.607L34.8689 33.5854C34.9399 33.4449 34.9298 33.2499 34.8438 33.098L34.2547 32.102C34.0959 31.8659 34.1865 31.5386 34.4442 31.4178C34.5581 31.3532 34.6556 31.3482 34.7531 31.3432L35.895 31.4992C36.052 31.5106 36.2255 31.4626 36.3262 31.3303L37.074 30.4804C37.2557 30.4025 37.4374 30.3247 37.6457 30.3824ZM37.7281 30.0849C37.4306 30.0025 37.1134 30.1069 36.8905 30.3334L36.1426 31.1834C36.0964 31.2347 36.0287 31.2479 35.9692 31.2315L34.8272 31.0754C34.3943 31.0196 33.9897 31.324 33.9256 31.7867C33.9059 31.9734 33.954 32.1469 34.04 32.2988L34.6291 33.2948C34.6804 33.341 34.6557 33.4302 34.6392 33.4897L34.1641 34.5113C34.0685 34.7411 34.0621 34.9956 34.1614 35.2153C34.2607 35.4349 34.436 35.6116 34.674 35.6775C34.793 35.7105 34.95 35.7219 35.0557 35.6871L36.1775 35.4532C36.2073 35.4614 36.2453 35.4399 36.275 35.4482C36.3048 35.4564 36.3345 35.4646 36.356 35.5026L37.1598 36.3017C37.2623 36.3942 37.373 36.4569 37.4921 36.4898C37.7301 36.5557 37.9713 36.4944 38.1694 36.3571C38.3676 36.2198 38.493 35.9983 38.5292 35.752L38.6472 34.6316C38.6637 34.5721 38.6802 34.5126 38.7561 34.4696L39.7736 33.9185C40.1535 33.7034 40.3233 33.2058 40.1081 32.826C40.0221 32.674 39.898 32.5436 39.7278 32.4644L38.6682 32.0108C38.6087 31.9944 38.5657 31.9184 38.5442 31.8804L38.34 30.7668C38.2439 30.4199 38.0256 30.1673 37.7281 30.0849Z" fill="#FF9D28"/>
<path d="M45.1424 32.4582C45.3209 32.5077 45.4665 32.6761 45.5145 32.8495L45.7187 33.9631C45.737 34.1283 45.861 34.2588 46.0015 34.3297L47.0611 34.7833C47.3206 34.8871 47.425 35.2043 47.3211 35.4638C47.2584 35.5746 47.2039 35.6556 47.0982 35.6904L46.1105 36.2497C45.9586 36.3358 45.8579 36.4681 45.8382 36.6548L45.7202 37.7752C45.6758 38.0512 45.4314 38.2398 45.1471 38.2251C45.0496 38.2302 44.9389 38.1675 44.8661 38.0833L44.0244 37.3057C43.9004 37.1752 43.7219 37.1258 43.5781 37.1821L42.4563 37.416C42.1854 37.4691 41.9126 37.2975 41.8595 37.0265C41.8247 36.9208 41.8577 36.8018 41.8906 36.6828L42.3657 35.6612C42.4366 35.5207 42.4265 35.3257 42.3405 35.1738L41.7812 34.1861C41.6223 33.9499 41.713 33.6227 41.9706 33.5018C42.0846 33.4373 42.1821 33.4323 42.2796 33.4272L43.4215 33.5833C43.5785 33.5947 43.752 33.5467 43.8527 33.4144L44.6005 32.5644C44.7525 32.4784 44.9639 32.4088 45.1424 32.4582ZM45.2545 32.169C44.957 32.0866 44.6399 32.1909 44.417 32.4175L43.6691 33.2675C43.6229 33.3187 43.5552 33.332 43.4957 33.3155L42.3537 33.1595C42.048 33.1069 41.7523 33.2492 41.5807 33.522C41.4091 33.7948 41.3862 34.1088 41.5665 34.3829L42.1258 35.3706C42.1771 35.4168 42.1524 35.5061 42.1359 35.5656L41.6609 36.5872C41.5652 36.8169 41.5588 37.0714 41.6581 37.2911C41.7574 37.5108 41.9327 37.6874 42.1707 37.7533C42.2897 37.7863 42.4467 37.7977 42.5525 37.7629L43.6743 37.529C43.704 37.5373 43.742 37.5158 43.7717 37.524C43.8015 37.5322 43.8313 37.5405 43.8528 37.5785L44.6945 38.3561C44.797 38.4485 44.9078 38.5112 45.0268 38.5442C45.2648 38.6101 45.506 38.5487 45.7041 38.4114C45.9023 38.2741 46.0277 38.0526 46.0639 37.8063L46.1819 36.6859C46.1984 36.6264 46.2149 36.5669 46.2909 36.5239L47.2785 35.9646C47.5445 35.814 47.7243 35.5114 47.7092 35.219C47.7023 34.8968 47.522 34.6226 47.2327 34.5105L46.1732 34.0569C46.1137 34.0404 46.0706 33.9645 46.0491 33.9265L45.845 32.8129C45.7704 32.504 45.5223 32.2431 45.2545 32.169Z" fill="#FF9D28"/>
<path d="M54.5987 37.9917C54.9786 37.7766 55.1484 37.2791 54.9332 36.8992C54.8472 36.7472 54.6934 36.6085 54.5529 36.5376L53.4933 36.0841C53.4338 36.0676 53.3908 35.9916 53.3693 35.9536L53.1651 34.8401C53.031 34.5146 52.8127 34.262 52.5152 34.1796C52.2177 34.0972 51.9005 34.2016 51.6776 34.4282L50.9298 35.2781C50.8835 35.3294 50.8158 35.3427 50.7563 35.3262L49.6143 35.1701C49.1814 35.1143 48.7768 35.4187 48.7127 35.8814C48.693 36.0682 48.7411 36.2416 48.8271 36.3936L49.4162 37.3895C49.4675 37.4357 49.4428 37.525 49.4263 37.5845L48.9512 38.6061C48.8556 38.8358 48.8492 39.0903 48.9485 39.31C49.0478 39.5297 49.2231 39.7063 49.4611 39.7722C49.5801 39.8052 49.7371 39.8166 49.8428 39.7818L50.9646 39.5479C50.9944 39.5562 51.0324 39.5347 51.0621 39.5429C51.0919 39.5511 51.1216 39.5594 51.1431 39.5974L51.9849 40.375C52.0874 40.4674 52.1981 40.5301 52.3171 40.5631C52.5552 40.629 52.7964 40.5676 52.9945 40.4303C53.1927 40.293 53.3181 40.0715 53.3543 39.8252L53.4723 38.7048C53.4888 38.6453 53.5053 38.5858 53.5812 38.5428L54.5987 37.9917ZM53.3712 38.2604C53.2192 38.3464 53.1185 38.4787 53.0988 38.6655L52.9808 39.7859C52.9826 40.0106 52.806 40.1859 52.6325 40.234L53.6622 36.5152L54.3515 36.8022C54.611 36.906 54.7154 37.2232 54.6115 37.4827C54.5488 37.5935 54.4943 37.6745 54.3886 37.7093L53.3712 38.2604Z" fill="#FF9D28"/>
</g>
<defs>
<filter id="filter0_dddddd_3_14614" x="-16" y="-2" width="112.202" height="71.9736" filterUnits="userSpaceOnUse" color-interpolation-filters="sRGB">
<feFlood flood-opacity="0" result="BackgroundImageFix"/>
<feColorMatrix in="SourceAlpha" type="matrix" values="0 0 0 0 0 0 0 0 0 0 0 0 0 0 0 0 0 0 127 0" result="hardAlpha"/>
<feOffset dy="0.166035"/>
<feGaussianBlur stdDeviation="0.152199"/>
<feColorMatrix type="matrix" values="0 0 0 0 0 0 0 0 0 0 0 0 0 0 0 0 0 0 0.0506062 0"/>
<feBlend mode="normal" in2="BackgroundImageFix" result="effect1_dropShadow_3_14614"/>
<feColorMatrix in="SourceAlpha" type="matrix" values="0 0 0 0 0 0 0 0 0 0 0 0 0 0 0 0 0 0 127 0" result="hardAlpha"/>
<feOffset dy="0.399006"/>
<feGaussianBlur stdDeviation="0.365756"/>
<feColorMatrix type="matrix" values="0 0 0 0 0 0 0 0 0 0 0 0 0 0 0 0 0 0 0.0727007 0"/>
<feBlend mode="normal" in2="effect1_dropShadow_3_14614" result="effect2_dropShadow_3_14614"/>
<feColorMatrix in="SourceAlpha" type="matrix" values="0 0 0 0 0 0 0 0 0 0 0 0 0 0 0 0 0 0 127 0" result="hardAlpha"/>
<feOffset dy="0.751293"/>
<feGaussianBlur stdDeviation="0.688685"/>
<feColorMatrix type="matrix" values="0 0 0 0 0 0 0 0 0 0 0 0 0 0 0 0 0 0 0.09 0"/>
<feBlend mode="normal" in2="effect2_dropShadow_3_14614" result="effect3_dropShadow_3_14614"/>
<feColorMatrix in="SourceAlpha" type="matrix" values="0 0 0 0 0 0 0 0 0 0 0 0 0 0 0 0 0 0 127 0" result="hardAlpha"/>
<feOffset dy="1.34018"/>
<feGaussianBlur stdDeviation="1.2285"/>
<feColorMatrix type="matrix" values="0 0 0 0 0 0 0 0 0 0 0 0 0 0 0 0 0 0 0.107299 0"/>
<feBlend mode="normal" in2="effect3_dropShadow_3_14614" result="effect4_dropShadow_3_14614"/>
<feColorMatrix in="SourceAlpha" type="matrix" values="0 0 0 0 0 0 0 0 0 0 0 0 0 0 0 0 0 0 127 0" result="hardAlpha"/>
<feOffset dy="2.50666"/>
<feGaussianBlur stdDeviation="2.29777"/>
<feColorMatrix type="matrix" values="0 0 0 0 0 0 0 0 0 0 0 0 0 0 0 0 0 0 0.129394 0"/>
<feBlend mode="normal" in2="effect4_dropShadow_3_14614" result="effect5_dropShadow_3_14614"/>
<feColorMatrix in="SourceAlpha" type="matrix" values="0 0 0 0 0 0 0 0 0 0 0 0 0 0 0 0 0 0 127 0" result="hardAlpha"/>
<feOffset dy="6"/>
<feGaussianBlur stdDeviation="5.5"/>
<feColorMatrix type="matrix" values="0 0 0 0 0 0 0 0 0 0 0 0 0 0 0 0 0 0 0.18 0"/>
<feBlend mode="normal" in2="effect5_dropShadow_3_14614" result="effect6_dropShadow_3_14614"/>
<feBlend mode="normal" in="SourceGraphic" in2="effect6_dropShadow_3_14614" result="shape"/>
</filter>
<clipPath id="clip0_3_14614">
<rect width="85.8175" height="28.0914" fill="white" transform="translate(2.49609 3) rotate(15.4772)"/>
</clipPath>
</defs>
</svg>
