<svg width="104" height="54" viewBox="0 0 104 54" fill="none" xmlns="http://www.w3.org/2000/svg">
<g filter="url(#filter0_dddddd_3_14662)">
<g clip-path="url(#clip0_3_14662)">
<rect x="-4.57666" y="27.3794" width="100.136" height="16.3013" transform="rotate(-15.0791 -4.57666 27.3794)" fill="#F5F5F9"/>
<rect x="-8.51562" y="12.7642" width="100.136" height="13.9725" transform="rotate(-15.0791 -8.51562 12.7642)" fill="white"/>
<path d="M18.442 10.3565L17.413 10.6337C17.3834 10.6417 17.3658 10.6722 17.3738 10.7018L18.1565 13.6068C18.2987 14.22 18.9519 15.347 20.4269 14.9496C21.9019 14.5522 21.9148 13.2457 21.7368 12.6421L20.9541 9.73713C20.9461 9.70753 20.9157 9.69 20.8861 9.69798L19.8999 9.96369C19.8703 9.97166 19.8528 10.0021 19.8607 10.0317L20.6424 12.9328C20.6431 12.9354 20.6436 12.9379 20.6439 12.9406C20.6725 13.1948 20.6101 13.7275 20.1323 13.8563C19.6521 13.9856 19.3725 13.5397 19.2928 13.3006L18.5101 10.3956C18.5021 10.366 18.4716 10.3485 18.442 10.3565Z" fill="#343D45"/>
<path fill-rule="evenodd" clip-rule="evenodd" d="M-2.14301 20.9844L-0.953796 20.664C-0.932542 20.6583 -0.91668 20.6406 -0.913362 20.6188L-0.741439 19.4914C-0.738121 19.4696 -0.722258 19.4519 -0.701005 19.4462L0.751217 19.0549C0.77247 19.0492 0.7951 19.0565 0.8089 19.0737L1.52395 19.9621C1.53775 19.9793 1.56038 19.9866 1.58164 19.9809L2.77056 19.6606C2.8097 19.65 2.8247 19.6024 2.79869 19.5714L-1.10404 14.9079C-1.13445 14.8715 -1.19346 14.8875 -1.20135 14.9342L-2.21219 20.9216C-2.21893 20.9615 -2.18208 20.995 -2.14301 20.9844ZM-0.644845 18.4423L0.159114 18.2257C0.197178 18.2154 0.21272 18.1699 0.188861 18.1385L-0.464117 17.2797C-0.493981 17.2404 -0.556415 17.2567 -0.563275 17.3055L-0.714255 18.381C-0.719788 18.4204 -0.683272 18.4527 -0.644845 18.4423Z" fill="#343D45"/>
<path fill-rule="evenodd" clip-rule="evenodd" d="M8.7754 17.9972L9.82591 17.7142C9.85551 17.7062 9.87304 17.6758 9.86506 17.6462L9.52426 16.3813C9.51629 16.3517 9.53382 16.3212 9.56342 16.3132L10.4531 16.0735C10.9528 15.9082 11.869 15.2689 11.5363 14.034C11.2036 12.7991 10.3041 12.6184 9.46795 12.8437L7.52772 13.3664C7.49812 13.3744 7.48059 13.4049 7.48856 13.4345L8.70736 17.9581C8.71533 17.9877 8.74579 18.0052 8.7754 17.9972ZM8.92265 14.1517L9.24034 15.3309C9.24832 15.3605 9.27878 15.378 9.30838 15.37L10.0629 15.1668C10.0672 15.1656 10.0714 15.1639 10.0753 15.1617C10.2363 15.0688 10.5167 14.7764 10.3934 14.3189C10.2686 13.8558 9.8944 13.8324 9.72289 13.8786L8.9618 14.0837C8.9322 14.0917 8.91467 14.1221 8.92265 14.1517Z" fill="#343D45"/>
<path fill-rule="evenodd" clip-rule="evenodd" d="M3.9712 19.2917L5.02171 19.0086C5.05131 19.0007 5.06884 18.9702 5.06086 18.9406L4.72006 17.6757C4.71209 17.6461 4.72962 17.6156 4.75922 17.6077L5.64894 17.3679C6.14863 17.2027 7.06482 16.5634 6.73211 15.3285C6.3994 14.0936 5.49987 13.9128 4.66375 14.1381L2.72352 14.6609C2.69392 14.6688 2.67639 14.6993 2.68436 14.7289L3.90316 19.2525C3.91113 19.2821 3.9416 19.2997 3.9712 19.2917ZM4.11848 15.4463L4.43618 16.6255C4.44415 16.6551 4.47461 16.6726 4.50421 16.6646L5.2587 16.4614C5.26308 16.4602 5.26719 16.4585 5.27112 16.4563C5.43214 16.3634 5.71249 16.071 5.58922 15.6135C5.46445 15.1504 5.09023 15.127 4.91872 15.1732L4.15764 15.3783C4.12804 15.3863 4.11051 15.4167 4.11848 15.4463Z" fill="#343D45"/>
<path d="M16.0441 11.0651L15.7079 12.0461C15.6964 12.0796 15.6571 12.0941 15.6257 12.0779C15.3692 11.9459 14.8115 11.7718 14.2119 11.9333C13.5602 12.1089 13.5534 12.448 13.6315 12.5956C13.6843 12.7347 13.9987 13.0025 14.8339 12.9615C15.6524 12.9213 16.0885 13.0135 16.2129 13.0677C16.2178 13.0698 16.2226 13.0712 16.2279 13.0722C16.3611 13.0972 16.6876 13.2747 16.9929 13.8055C17.303 14.3446 17.1005 15.0735 16.9588 15.3748C16.9575 15.3776 16.9565 15.3802 16.9556 15.3831C16.8927 15.593 16.5155 16.0727 15.4934 16.3481C14.5026 16.615 13.4979 16.303 13.0734 16.0936C13.047 16.0805 13.0365 16.0489 13.0489 16.0221L13.5005 15.0414C13.5169 15.0058 13.5656 14.9963 13.5993 15.0164C13.8257 15.1514 14.3934 15.2469 14.6768 15.2803C15.1416 15.2701 16.0377 15.1252 15.9037 14.6278C15.7697 14.1305 15.0556 14.0975 14.7154 14.1432C13.9106 14.314 12.8629 13.9294 12.6471 13.5507C11.9839 12.3864 12.608 11.4993 13.0029 11.2013C14.3007 10.4401 15.5271 10.7379 16.0191 10.9997C16.0425 11.0122 16.0527 11.0399 16.0441 11.0651Z" fill="#343D45"/>
<path d="M24.2188 13.928L23.3004 14.1754C23.2664 14.1846 23.2325 14.1602 23.2305 14.125L22.9487 9.14849C22.9459 9.098 23.0065 9.0703 23.0428 9.10552L25.4888 11.4788C25.519 11.5082 25.5697 11.4944 25.5809 11.4538L26.4831 8.17919C26.4966 8.1304 26.563 8.12357 26.5861 8.1686L28.863 12.6072C28.8791 12.6386 28.8621 12.6769 28.828 12.6861L27.8241 12.9566C27.7982 12.9636 27.7711 12.9511 27.7595 12.927L26.8426 11.0073C26.8203 10.9606 26.7519 10.9671 26.7388 11.0172L26.1112 13.4253C26.1006 13.4662 26.0498 13.4806 26.0192 13.4514L24.1812 11.6985C24.1443 11.6633 24.0835 11.6923 24.0876 11.7432L24.2597 13.8699C24.2619 13.8966 24.2447 13.921 24.2188 13.928Z" fill="#343D45"/>
<path fill-rule="evenodd" clip-rule="evenodd" d="M32.3013 11.9805C33.7459 11.5913 34.6014 10.1048 34.2122 8.66025C33.823 7.21571 32.3365 6.3602 30.8919 6.74939C29.4474 7.13859 28.5919 8.62513 28.9811 10.0697C29.3703 11.5142 30.8568 12.3697 32.3013 11.9805ZM31.9435 10.7431C32.7131 10.5358 33.169 9.74376 32.9616 8.97413C32.7542 8.20451 31.9622 7.7487 31.1926 7.95606C30.423 8.16342 29.9672 8.95542 30.1745 9.72505C30.3819 10.4947 31.1739 10.9505 31.9435 10.7431Z" fill="#343D45"/>
<path d="M5.35671 30.6728L7.05303 36.9688C7.09485 37.1241 7.00292 37.2838 6.84769 37.3256L5.49854 37.6891C5.34331 37.731 5.18357 37.639 5.14174 37.4838L3.44542 31.1878C3.4036 31.0326 3.24385 30.9406 3.08862 30.9825L1.17734 31.4974C1.02211 31.5392 0.862362 31.4473 0.820538 31.2921L0.517623 30.1678C0.475799 30.0126 0.567734 29.8528 0.722966 29.811L6.7941 28.1753C6.94934 28.1334 7.10908 28.2254 7.1509 28.3806L7.45382 29.5049C7.49564 29.6601 7.40371 29.8199 7.24848 29.8617L5.56205 30.316C5.40682 30.3579 5.31488 30.5176 5.35671 30.6728Z" fill="#050505"/>
<path d="M52.8015 17.8896L54.4979 24.1856C54.5397 24.3409 54.4477 24.5006 54.2925 24.5424L52.9434 24.9059C52.7881 24.9478 52.6284 24.8558 52.5866 24.7006L50.8902 18.4046C50.8484 18.2494 50.6887 18.1574 50.5334 18.1993L48.6222 18.7142C48.4669 18.756 48.3072 18.6641 48.2654 18.5089L47.9624 17.3846C47.9206 17.2294 48.0126 17.0696 48.1678 17.0278L54.2389 15.392C54.3942 15.3502 54.5539 15.4422 54.5957 15.5974L54.8986 16.7217C54.9405 16.8769 54.8485 17.0367 54.6933 17.0785L53.0069 17.5328C52.8516 17.5747 52.7597 17.7344 52.8015 17.8896Z" fill="#050505"/>
<path fill-rule="evenodd" clip-rule="evenodd" d="M34.5224 29.9898L36.0772 29.5709C36.1982 29.5383 36.2847 29.4319 36.2921 29.3068L36.3537 28.2554C36.3611 28.1303 36.4476 28.024 36.5686 27.9914L38.8617 27.3736C38.9827 27.341 39.111 27.3894 39.1801 27.4939L39.7617 28.372C39.8308 28.4765 39.9591 28.525 40.0801 28.4924L41.8502 28.0155C42.0415 27.9639 42.1265 27.7403 42.0178 27.5746L37.2413 20.2997C37.1723 20.1946 37.0436 20.1457 36.9222 20.1784L34.636 20.7943C34.5121 20.8277 34.4247 20.9383 34.4207 21.0665L34.1557 29.6998C34.1497 29.895 34.3338 30.0406 34.5224 29.9898ZM36.4866 26.4459L38.1551 25.9963C38.3505 25.9437 38.4339 25.7127 38.3172 25.5474L36.8699 23.4968C36.7136 23.2754 36.366 23.369 36.3421 23.639L36.1209 26.1391C36.103 26.3407 36.2912 26.4985 36.4866 26.4459Z" fill="#050505"/>
<path fill-rule="evenodd" clip-rule="evenodd" d="M11.0074 27.0395C12.1792 26.764 14.6623 26.7301 15.2197 28.7988L16.1519 32.2591C16.1565 32.2759 16.1594 32.2922 16.1606 32.3096C16.2217 33.1857 15.7446 35.0486 13.3398 35.6965C10.9114 36.3508 9.78502 34.8856 9.52541 34.0713L8.45021 30.0806C8.44011 30.0431 8.43732 30.0045 8.4435 29.9662C8.57493 29.1511 9.25097 27.5128 11.0074 27.0395ZM11.5886 28.5713C12.0674 28.4673 13.1121 28.5818 13.4595 29.8714L14.0449 32.044C14.1224 32.5744 14.0304 33.7017 13.0426 33.9679C12.0547 34.234 11.5003 33.2808 11.3466 32.771L10.677 30.2858C10.6702 30.2607 10.6667 30.2349 10.6674 30.2089C10.6795 29.7185 10.8763 28.7632 11.5886 28.5713Z" fill="#050505"/>
<path fill-rule="evenodd" clip-rule="evenodd" d="M18.2326 34.3784L19.5817 34.0149C19.737 33.9731 19.8289 33.8133 19.7871 33.6581L19.0298 30.8474C18.988 30.6922 19.0799 30.5324 19.2351 30.4906L21.4771 29.8865C21.5185 29.8754 21.5569 29.8555 21.589 29.8271C22.1541 29.326 23.1143 28.1043 22.7848 26.8812C22.2396 24.8576 21.046 24.4557 20.1466 24.698L15.9305 25.8339C15.7753 25.8758 15.6833 26.0355 15.7251 26.1907L17.8758 34.1731C17.9176 34.3283 18.0774 34.4202 18.2326 34.3784ZM18.0906 27.3623L18.5147 28.9363C18.5565 29.0916 18.7163 29.1835 18.8715 29.1417L20.5478 28.69C20.5914 28.6783 20.6321 28.6572 20.6633 28.6245C20.8608 28.4179 21.1419 27.9455 20.9858 27.3661C20.8263 26.7742 20.3461 26.5743 20.0856 26.5405C20.0545 26.5365 20.0232 26.5402 19.993 26.5483L18.296 27.0055C18.1407 27.0474 18.0488 27.2071 18.0906 27.3623Z" fill="#050505"/>
<path fill-rule="evenodd" clip-rule="evenodd" d="M28.0129 31.7431L29.362 31.3796C29.5173 31.3378 29.6092 31.1781 29.5674 31.0228L28.8101 28.2121C28.7683 28.0569 28.8602 27.8972 29.0154 27.8553L31.2574 27.2513C31.2988 27.2401 31.3372 27.2203 31.3692 27.1918C31.9344 26.6907 32.8946 25.469 32.5651 24.246C32.0198 22.2223 30.8263 21.8204 29.9268 22.0628L25.7108 23.1987C25.5555 23.2405 25.4636 23.4003 25.5054 23.5555L27.6561 31.5378C27.6979 31.693 27.8577 31.785 28.0129 31.7431ZM27.8707 24.727L28.2948 26.301C28.3366 26.4562 28.4964 26.5482 28.6516 26.5064L30.3279 26.0547C30.3715 26.043 30.4122 26.0218 30.4434 25.9892C30.6409 25.7826 30.922 25.3101 30.7659 24.7308C30.6064 24.1389 30.1262 23.9389 29.8657 23.9052C29.8346 23.9012 29.8033 23.9048 29.7731 23.913L28.0761 24.3702C27.9208 24.412 27.8289 24.5718 27.8707 24.727Z" fill="#050505"/>
<path fill-rule="evenodd" clip-rule="evenodd" d="M43.1371 27.6687L40.8047 19.0117L44.8521 17.9212C45.6795 17.8591 47.4494 18.162 47.9098 19.871C48.3702 21.5799 47.4015 22.4599 46.8595 22.6863L49.658 25.9118L47.5218 26.4873L44.9482 23.2013L44.0488 23.4436L45.0484 27.1538L43.1371 27.6687ZM43.1702 20.1833L43.7154 22.207L45.7392 21.6617C45.9438 21.5262 46.3168 21.1202 46.1714 20.5805C46.026 20.0409 45.5341 19.7071 45.3063 19.6077L43.1702 20.1833Z" fill="#050505"/>
<path d="M55.6426 15.0137L57.9447 23.5582L59.856 23.0433L58.5535 18.2089L62.8916 22.2254L64.8029 21.7105L62.5007 13.1659L60.5894 13.6808L61.892 18.5153L57.5539 14.4987L55.6426 15.0137Z" fill="#050505"/>
<path d="M72.0288 19.8841L71.5745 18.1977L67.527 19.2881L66.9818 17.2644L69.7925 16.5071L69.3987 15.0456L66.588 15.8029L66.073 13.8916L70.1205 12.8011L69.6964 11.2271L63.8501 12.8022L66.1825 21.4592L72.0288 19.8841Z" fill="#050505"/>
<path fill-rule="evenodd" clip-rule="evenodd" d="M73.123 19.4689L75.1467 18.9236L74.2076 15.4384L75.4443 15.1051L77.7325 18.2269L80.0935 17.5908L77.1308 14.6508C77.6323 14.2745 78.5446 13.1845 78.1811 11.8354C77.8176 10.4863 76.1958 9.8379 75.4304 9.68237L70.8208 10.9243L73.123 19.4689ZM73.1863 12.0958L73.7316 14.1196L75.8677 13.544C75.8809 13.5211 75.904 13.4886 75.9329 13.448C76.0836 13.2362 76.3917 12.8033 76.2696 12.3504C76.1242 11.8108 75.5776 11.5722 75.3224 11.5203L73.1863 12.0958Z" fill="#050505"/>
<path d="M83.3973 12.8417L86.3199 9.14611L90.8176 10.8424L84.517 -12.5427L77.0967 -10.5435L83.3973 12.8417Z" fill="#FFBC00"/>
<rect x="-4.87988" y="26.2554" width="88.7255" height="1.16438" transform="rotate(-15.0791 -4.87988 26.2554)" fill="#DBDFE5"/>
<rect x="88.2119" y="1.17383" width="3.72601" height="1.16438" transform="rotate(-15.0791 88.2119 1.17383)" fill="#DBDFE5"/>
</g>
<rect x="-9.14368" y="12.2101" width="101.301" height="32.8354" rx="1.863" transform="rotate(-15.0791 -9.14368 12.2101)" stroke="#40BF65" stroke-width="1.39725"/>
</g>
<defs>
<filter id="filter0_dddddd_3_14662" x="-16.0548" y="-18.2603" width="120.177" height="71.881" filterUnits="userSpaceOnUse" color-interpolation-filters="sRGB">
<feFlood flood-opacity="0" result="BackgroundImageFix"/>
<feColorMatrix in="SourceAlpha" type="matrix" values="0 0 0 0 0 0 0 0 0 0 0 0 0 0 0 0 0 0 127 0" result="hardAlpha"/>
<feOffset dy="0.0773311"/>
<feGaussianBlur stdDeviation="0.0837754"/>
<feColorMatrix type="matrix" values="0 0 0 0 0.0235294 0 0 0 0 0.0666667 0 0 0 0 0.0352941 0 0 0 0.0421718 0"/>
<feBlend mode="normal" in2="BackgroundImageFix" result="effect1_dropShadow_3_14662"/>
<feColorMatrix in="SourceAlpha" type="matrix" values="0 0 0 0 0 0 0 0 0 0 0 0 0 0 0 0 0 0 127 0" result="hardAlpha"/>
<feOffset dy="0.185837"/>
<feGaussianBlur stdDeviation="0.201324"/>
<feColorMatrix type="matrix" values="0 0 0 0 0.0235294 0 0 0 0 0.0666667 0 0 0 0 0.0352941 0 0 0 0.0605839 0"/>
<feBlend mode="normal" in2="effect1_dropShadow_3_14662" result="effect2_dropShadow_3_14662"/>
<feColorMatrix in="SourceAlpha" type="matrix" values="0 0 0 0 0 0 0 0 0 0 0 0 0 0 0 0 0 0 127 0" result="hardAlpha"/>
<feOffset dy="0.349915"/>
<feGaussianBlur stdDeviation="0.379075"/>
<feColorMatrix type="matrix" values="0 0 0 0 0.0235294 0 0 0 0 0.0666667 0 0 0 0 0.0352941 0 0 0 0.075 0"/>
<feBlend mode="normal" in2="effect2_dropShadow_3_14662" result="effect3_dropShadow_3_14662"/>
<feColorMatrix in="SourceAlpha" type="matrix" values="0 0 0 0 0 0 0 0 0 0 0 0 0 0 0 0 0 0 127 0" result="hardAlpha"/>
<feOffset dy="0.624189"/>
<feGaussianBlur stdDeviation="0.676205"/>
<feColorMatrix type="matrix" values="0 0 0 0 0.0235294 0 0 0 0 0.0666667 0 0 0 0 0.0352941 0 0 0 0.0894161 0"/>
<feBlend mode="normal" in2="effect3_dropShadow_3_14662" result="effect4_dropShadow_3_14662"/>
<feColorMatrix in="SourceAlpha" type="matrix" values="0 0 0 0 0 0 0 0 0 0 0 0 0 0 0 0 0 0 127 0" result="hardAlpha"/>
<feOffset dy="1.16748"/>
<feGaussianBlur stdDeviation="1.26477"/>
<feColorMatrix type="matrix" values="0 0 0 0 0.0235294 0 0 0 0 0.0666667 0 0 0 0 0.0352941 0 0 0 0.107828 0"/>
<feBlend mode="normal" in2="effect4_dropShadow_3_14662" result="effect5_dropShadow_3_14662"/>
<feColorMatrix in="SourceAlpha" type="matrix" values="0 0 0 0 0 0 0 0 0 0 0 0 0 0 0 0 0 0 127 0" result="hardAlpha"/>
<feOffset dy="2.79451"/>
<feGaussianBlur stdDeviation="3.02738"/>
<feColorMatrix type="matrix" values="0 0 0 0 0.0235294 0 0 0 0 0.0666667 0 0 0 0 0.0352941 0 0 0 0.15 0"/>
<feBlend mode="normal" in2="effect5_dropShadow_3_14662" result="effect6_dropShadow_3_14662"/>
<feBlend mode="normal" in="SourceGraphic" in2="effect6_dropShadow_3_14662" result="shape"/>
</filter>
<clipPath id="clip0_3_14662">
<rect x="-10" y="11.7173" width="102.698" height="34.2327" rx="2.56163" transform="rotate(-15.0791 -10 11.7173)" fill="white"/>
</clipPath>
</defs>
</svg>
