<svg width="318" height="31" viewBox="0 0 318 31" fill="none" xmlns="http://www.w3.org/2000/svg">
<path d="M37.7076 30.1661V0H27.6523V11.3123H10.0554V0H0V30.1661H10.0554V17.5969H27.6523V30.1661H37.7076Z" fill="#0E4067"/>
<path d="M55.3037 0L41.4775 30.1661H51.5329L54.0467 25.1384H69.1298L71.6436 30.1661H82.9559L67.8729 0H55.3037Z" fill="#0E4067"/>
<path d="M91.7556 7.54152V30.1661H101.811V7.54152H114.38V0H80.4434V7.54152H91.7556Z" fill="#0E4067"/>
<path d="M157.113 18.8538L147.686 17.5969C148.189 19.608 144.963 21.7866 143.287 22.6246H131.975C128.455 22.6246 127.157 20.1107 126.947 18.8538V11.3123C126.947 9.30121 130.718 7.54152 132.603 6.91306H140.145C142.659 6.91306 145.801 9.84588 147.058 11.3123L155.228 9.42691C153.719 4.39922 146.639 1.04743 143.287 0H127.576C120.537 2.51384 116.682 8.58896 115.635 11.3123V18.8538C116.64 25.3898 125.062 30.1661 130.718 30.1661H143.287C152.84 30.1661 156.485 22.6246 157.113 18.8538Z" fill="#0E4067"/>
<path d="M170.941 0H160.886V30.1661H170.941V17.5969H188.538V30.1661H198.593V0H188.538V11.3123H170.941V0Z" fill="#0E4067"/>
<path d="M204.877 0H235.043V6.2846H213.675V12.5692H233.786V17.5969H213.675V23.8815H236.3V30.1661H204.877V0Z" fill="#0E4067"/>
<path d="M250.128 30.1661H240.072V0H268.353C271.495 0.418974 277.78 2.76523 277.78 8.79845C277.78 14.8317 271.914 17.1779 268.981 17.5969L274.009 25.1384H279.037C281.551 29.6633 272.543 30.3756 267.725 30.1661L260.183 20.1107H250.128V30.1661Z" fill="#0E4067"/>
<path d="M309.202 23.882H300.404V17.5974H291.605V12.5698H300.404V6.28516H309.202V12.5698H318.001V17.5974H309.202V23.882Z" fill="#238CCC"/>
<path d="M250.126 13.8267V6.28516H262.695C263.952 6.28516 266.466 7.03931 266.466 10.0559C266.466 13.0725 263.952 13.8267 262.695 13.8267H250.126Z" fill="#FCFCFD"/>
<path d="M57.8193 17.5978H66.6178L62.2186 7.54248L57.8193 17.5978Z" fill="#FCFCFD"/>
</svg>
